<svg width="15" height="14" viewBox="0 0 15 14" fill="none" xmlns="http://www.w3.org/2000/svg">
<path d="M11.1667 7.81413L11.1667 1.14746C11.1667 0.926445 11.2545 0.714482 11.4107 0.558202C11.567 0.401922 11.779 0.314125 12 0.314125H13.6667C13.8877 0.314125 14.0996 0.401922 14.2559 0.558202C14.4122 0.714482 14.5 0.926445 14.5 1.14746L14.5 6.98079C14.5 7.20181 14.4122 7.41377 14.2559 7.57005C14.0996 7.72633 13.8877 7.81413 13.6667 7.81413H11.1667ZM11.1667 7.81413C10.2826 7.81413 9.43477 8.16532 8.80964 8.79044C8.18452 9.41556 7.83333 10.2634 7.83333 11.1475V11.9808C7.83333 12.4228 7.65774 12.8467 7.34518 13.1593C7.03262 13.4719 6.6087 13.6475 6.16667 13.6475C5.72464 13.6475 5.30072 13.4719 4.98816 13.1593C4.6756 12.8467 4.5 12.4228 4.5 11.9808V7.81413L2 7.81413C1.55797 7.81413 1.13405 7.63853 0.821491 7.32597C0.508931 7.01341 0.333336 6.58949 0.333336 6.14746L1.16667 1.98079C1.28651 1.46956 1.51386 1.03059 1.81446 0.729988C2.11506 0.429387 2.47264 0.283439 2.83334 0.314125L8.66667 0.314125C9.32971 0.314125 9.96559 0.577517 10.4344 1.04636C10.9033 1.5152 11.1667 2.15108 11.1667 2.81413" stroke-width="0.5" stroke-linecap="round" stroke-linejoin="round"/>
</svg>
