<svg width="12" height="13" viewBox="0 0 12 13" xmlns="http://www.w3.org/2000/svg">
<path d="M11.9687 3.62799C11.9405 2.98912 11.8372 2.55224 11.6892 2.17174C11.5366 1.76774 11.3017 1.40838 10.9963 1.10773C10.6957 0.802388 10.3316 0.565159 9.93468 0.417185C9.55182 0.269211 9.11729 0.165864 8.47842 0.137678C7.83485 0.107144 7.63051 0.100098 6.00044 0.100098C4.37038 0.100098 4.16603 0.107144 3.52716 0.13533C2.88829 0.163515 2.45141 0.266862 2.07091 0.414836C1.66691 0.567508 1.30755 0.802388 1.0069 1.10773C0.701558 1.40838 0.464329 1.77244 0.316355 2.16939C0.168381 2.55224 0.0650339 2.98677 0.0368483 3.62564C0.00631397 4.26921 -0.000732422 4.47356 -0.000732422 6.10127C-0.000732422 7.72899 0.00631397 7.93568 0.0344995 8.57455C0.0626851 9.21343 0.166032 9.6503 0.314006 10.0308C0.466678 10.4348 0.703907 10.7942 1.0069 11.0948C1.30755 11.4002 1.67161 11.6374 2.06856 11.7854C2.45141 11.9333 2.88594 12.0367 3.52481 12.0649C4.16368 12.0931 4.36803 12.1001 5.99809 12.1001C7.62816 12.1001 7.8325 12.0931 8.47138 12.0649C9.11025 12.0367 9.54712 11.9333 9.92763 11.7854C10.7333 11.473 11.3721 10.8364 11.6845 10.0285C11.8325 9.64561 11.9359 9.21108 11.964 8.57221C11.9922 7.93098 11.9993 7.72899 11.9993 6.09892C11.9993 4.46886 11.9969 4.26921 11.9687 3.62799ZM10.8883 8.52993C10.8625 9.11713 10.7638 9.43186 10.6816 9.64326C10.4796 10.167 10.0639 10.5804 9.54243 10.7824C9.33103 10.8646 9.0116 10.9633 8.4291 10.9891C7.79492 11.0173 7.60702 11.0243 6.00514 11.0243C4.40326 11.0243 4.21066 11.0173 3.58118 10.9891C2.99398 10.9633 2.67924 10.8646 2.46785 10.7824C2.20714 10.6861 1.96991 10.5335 1.77966 10.3338C1.58001 10.1389 1.42734 9.90397 1.33104 9.64561C1.24883 9.43421 1.15018 9.11478 1.12434 8.53228C1.09616 7.8981 1.08911 7.7102 1.08911 6.10832C1.08911 4.50644 1.09616 4.31384 1.12434 3.68436C1.15018 3.09716 1.24883 2.78242 1.33104 2.57103C1.42499 2.30797 1.57766 2.07309 1.77966 1.88049C1.97461 1.68084 2.20948 1.52817 2.46785 1.43187C2.67924 1.34966 2.99868 1.25101 3.58118 1.22517C4.21536 1.19699 4.40326 1.18994 6.00514 1.18994C7.60937 1.18994 7.79962 1.19699 8.4291 1.22517C9.0163 1.25101 9.33103 1.34966 9.54243 1.43187C9.80314 1.52817 10.0404 1.68084 10.2306 1.88049C10.4303 2.07544 10.5829 2.31031 10.6792 2.57103C10.7615 2.78242 10.8601 3.10186 10.8859 3.68436C10.9141 4.31854 10.9212 4.50644 10.9212 6.10832C10.9212 7.7102 10.9165 7.89575 10.8883 8.52993Z"/>
<path d="M6.00044 3.01953C4.29757 3.01953 2.91647 4.40062 2.91647 6.1035C2.91647 7.80638 4.29757 9.18747 6.00044 9.18747C7.70332 9.18747 9.08441 7.80638 9.08441 6.1035C9.08441 4.40062 7.70332 3.01953 6.00044 3.01953ZM6.00044 8.10233C4.89651 8.10233 3.99927 7.20744 3.99927 6.10115C3.99927 4.99487 4.89416 4.09998 6.00044 4.09998C7.10438 4.09998 8.00162 4.99487 8.00162 6.10115C8.00162 7.20744 7.10673 8.10233 6.00044 8.10233Z"/>
<path d="M9.92764 2.89746C9.92764 3.2944 9.60585 3.61619 9.20891 3.61619C8.81196 3.61619 8.49017 3.2944 8.49017 2.89746C8.49017 2.50051 8.81196 2.17872 9.20891 2.17872C9.6035 2.17637 9.92764 2.50051 9.92764 2.89746Z"/>
</svg>
