<svg width="15" height="14" viewBox="0 0 15 14" fill="none" xmlns="http://www.w3.org/2000/svg">
<path d="M3.83333 6.14779V12.8145C3.83333 13.0355 3.74554 13.2474 3.58925 13.4037C3.43297 13.56 3.22101 13.6478 3 13.6478H1.33333C1.11232 13.6478 0.900358 13.56 0.744078 13.4037C0.587797 13.2474 0.5 13.0355 0.5 12.8145V6.98112C0.5 6.76011 0.587797 6.54815 0.744078 6.39187C0.900358 6.23559 1.11232 6.14779 1.33333 6.14779H3.83333ZM3.83333 6.14779C4.71739 6.14779 5.56523 5.7966 6.19036 5.17148C6.81548 4.54636 7.16667 3.69851 7.16667 2.81445V1.98112C7.16667 1.53909 7.34226 1.11517 7.65482 0.802609C7.96738 0.490048 8.3913 0.314453 8.83333 0.314453C9.27536 0.314453 9.69928 0.490048 10.0118 0.802609C10.3244 1.11517 10.5 1.53909 10.5 1.98112V6.14779H13C13.442 6.14779 13.8659 6.32338 14.1785 6.63594C14.4911 6.9485 14.6667 7.37243 14.6667 7.81445L13.8333 11.9811C13.7135 12.4924 13.4861 12.9313 13.1855 13.2319C12.8849 13.5325 12.5274 13.6785 12.1667 13.6478H6.33333C5.67029 13.6478 5.03441 13.3844 4.56557 12.9156C4.09672 12.4467 3.83333 11.8108 3.83333 11.1478" stroke-width="0.5" stroke-linecap="round" stroke-linejoin="round"/>
</svg>
