<svg width="90" height="84" viewBox="0 0 90 84" fill="none" xmlns="http://www.w3.org/2000/svg">
<path d="M19.1588 63.7841C25.9672 63.0839 28.5787 48.0587 28.2472 43.3178C28.6367 42.9295 34.3557 47.22 34.0283 40.6143C30.6559 43.9243 29.1639 39.3533 30.3923 37.3496C31.6194 35.3475 32.5503 35.4991 33.2335 34.2719C33.9149 33.0434 34.2282 25.8666 36.6369 25.6031C40.1367 30.0637 42.6534 28.8507 41.6258 26.3952C40.2289 29.1257 38.5498 24.5263 40.3423 23.2468C42.6291 21.6628 45.0761 22.0424 47.3746 26.4251C47.9512 28.1977 47.4639 33.232 47.777 34.3204C48.0871 35.4057 51.8548 39.5178 51.8548 41.1273C51.8548 42.7368 49.4886 41.7394 49.361 42.2466C49.2362 42.7538 48.9727 43.3743 49.3382 43.8789C49.7549 44.4514 50.9025 44.6072 50.9025 45.0889C50.9025 45.9988 49.5508 46.6761 49.5508 46.6761C49.5508 46.6761 50.6448 47.4211 50.622 48.263C50.5992 49.0988 48.6482 48.43 48.6184 49.1925C51.543 58.5612 41.0009 52.0999 37.5705 53.8543C34.1387 55.6084 30.0664 63.9683 34.1671 71.8012C38.2707 79.6313 67.7302 88.3964 79.6665 81.3117C91.5999 74.2242 90.3445 66.1588 89.4803 59.2157C88.6158 52.2674 81.0666 48.96 76.541 51.5247C72.9985 53.2961 74.0726 58.1901 76.963 59.0291C76.9149 52.7377 87.9162 59.4936 80.8797 63.9712C73.8403 68.4459 67.1266 59.0291 65.5426 54.8801C63.9586 50.7312 64.378 48.5858 63.8652 43.3207C63.3548 38.0554 61.0226 30.1743 61.0226 30.1743C61.0226 30.1743 58.4748 7.35011 34.7765 1.2276C11.0795 -4.89515 -0.0774974 15.1476 0.000405074 22.809C0.0329251 25.8909 0.401324 29.9392 0.836219 33.8045C1.07429 35.9144 -0.0435213 37.969 0.185818 39.7767C0.581155 42.8926 2.05184 42.34 2.28433 45.9759C2.3154 47.8121 4.7993 48.3989 5.26695 49.1925C5.73461 49.9861 4.92404 51.4764 5.63827 52.5957C6.35807 53.7181 8.28234 53.5594 9.08854 54.3215C9.89645 55.0869 12.3534 64.4784 19.1588 63.7841Z" fill="#C4B0A9"/>
</svg>
