<svg width="56" height="80" viewBox="0 0 56 80" fill="none" xmlns="http://www.w3.org/2000/svg">
<path d="M34.8092 78.9113C41.397 73.0302 58.6559 63.8341 55.5282 40.9084C54.7675 32.8405 53.0878 28.4678 51.4968 22.8514C48.5686 12.519 33.7601 -5.78895 17.0578 1.78884C0.355418 9.36431 -7.32361 50.7446 9.58079 53.9735C11.8478 54.3034 16.926 45.8784 17.4937 43.1225C18.0613 40.3668 20.9059 42.4773 23.6606 36.7391C26.4139 30.9995 23.9303 26.1 25.7688 22.3579C27.6072 18.612 28.3941 15.8081 33.9008 16.6122C37.5754 17.5307 36.5605 22.5055 37.3143 25.2627C38.0655 28.0186 43.9046 31.1153 43.7616 33.141C43.6188 35.1604 41.1658 34.6186 41.2226 36.7968C41.2226 37.6873 42.4785 38.3263 42.523 39.3593C42.5647 40.3936 41.134 41.1891 41.134 41.1891C41.134 41.1891 42.4047 41.9872 42.0674 43.1472C41.7325 44.3095 40.1514 44.2184 39.5503 44.5459C39.2696 44.7011 41.8112 48.6366 40.0725 50.7741C37.9497 53.2716 27.3364 50.6412 25.2923 51.4368C21.448 52.9293 18.2686 58.111 20.3842 60.5636C22.5021 63.0141 31.7241 63.2603 31.7091 77.495C31.7087 80.4774 32.9226 80.5932 34.8092 78.9113Z" fill="#C4B0A9"/>
</svg>
