<svg width="100" height="82" viewBox="0 0 100 82" fill="none" xmlns="http://www.w3.org/2000/svg">
<path d="M17.7171 71.1855C24.6122 70.4746 30.2414 53.7055 29.9125 48.9062C30.3103 48.5113 36.0993 52.8567 35.7675 46.165C32.3559 49.5168 30.8366 44.8931 32.0865 42.8602C33.3302 40.827 34.2729 40.9901 34.9624 39.7431C35.6577 38.4978 35.9711 31.2255 38.4113 30.9624C41.9543 35.4782 44.501 34.25 43.4641 31.7642C42.0482 34.5317 40.3503 29.8705 42.1641 28.5753C44.4822 26.9713 46.96 27.3568 49.2845 31.7956C49.8704 33.589 49.3817 38.6888 49.6979 39.7901C50.0113 40.8927 53.8298 45.056 53.8298 46.6852C53.8298 48.3138 51.4334 47.3054 51.3049 47.8192C51.1764 48.3297 50.9103 48.9593 51.2799 49.4733C51.7027 50.056 52.8617 50.2127 52.8617 50.7009C52.8617 51.6222 51.4927 52.3049 51.4927 52.3049C51.4927 52.3049 52.6017 53.0628 52.5797 53.9151C52.5577 54.7641 50.5779 54.0841 50.5468 54.8548C53.5069 64.3529 42.834 57.7996 39.3537 59.582C35.8764 61.3647 27.9291 67.5856 32.086 75.5237C33.6178 78.4468 39.8988 74.4528 45.4622 75.2796C55.0041 76.6926 58.0961 87.0457 73.7057 76.3886C85.801 69.2148 92.658 77.0089 95.1395 67.7205C97.6143 58.4325 82.875 52.4865 87.5834 44.9307C90.2087 40.7172 100.59 36.258 99.9732 21.765C98.6356 11.7376 88.8212 10.9902 89.5667 14.9517C93.902 15.6924 91.8001 20.6015 89.0715 20.4024C82.2582 19.9075 90.0646 9.62762 76.8072 2.43851C63.5533 -4.74444 59.0829 14.9174 46.1984 11.8207C44.2496 11.3177 41.653 9.20027 39.153 9.25204C36.0797 9.31938 33.085 11.5841 30.8546 10.9875C26.7978 9.8975 22.6753 6.02233 19.5771 7.01547C15.8556 8.20901 15.9401 15.6286 13.5061 18.2882C8.78507 23.4428 3.31557 24.9308 3.35018 28.1968C3.38157 31.3184 9.54347 35.3829 8.30299 40.2134C7.06546 45.0439 -0.230429 43.9536 0.00457626 45.7832C0.402153 48.9408 5.22646 51.9167 5.69969 52.725C6.17292 53.5269 2.48581 55.8356 3.09961 58.918C3.64769 62.7492 13.7537 66.3521 4.95712 69.8165C7.80884 72.2972 10.8255 71.8903 17.7171 71.1855Z" fill="#C4B0A9"/>
</svg>
