<svg width="44" height="37" viewBox="0 0 44 37" fill="none" xmlns="http://www.w3.org/2000/svg">
<path d="M22.2641 35.5882C31.8154 35.5882 39.5582 27.8454 39.5582 18.2941C39.5582 8.74284 31.8154 1 22.2641 1C12.7128 1 4.96997 8.74284 4.96997 18.2941C4.96997 27.8454 12.7128 35.5882 22.2641 35.5882Z" fill="#C4B0A9" stroke="#2D2C31" stroke-width="2" stroke-miterlimit="10"/>
<path d="M26.7298 16.6216C26.6629 16.6216 26.596 16.6718 26.5123 16.7888L26.0608 17.508C25.559 18.3108 25.074 19.03 24.5889 19.6656C24.1039 20.3179 23.5185 20.9535 22.8495 21.5723C22.5819 21.8065 22.2641 22.0406 21.8961 22.2581C21.5282 22.4922 21.1937 22.5926 20.8759 22.5926C20.6083 22.5926 20.3908 22.5089 20.2236 22.3417C20.0396 21.8065 19.9392 21.3214 19.9392 20.8698C19.9392 20.5186 19.9894 20.1674 20.1065 19.8329C20.2069 19.5987 20.2738 19.4649 20.3239 19.4147C20.3741 19.3645 20.5079 19.3478 20.7253 19.3478C21.1268 19.3311 21.5616 19.1806 22.0634 18.8962C22.6153 18.5785 23.0669 18.1938 23.3847 17.7255C23.7192 17.2571 23.9701 16.7219 24.1541 16.1031C24.2042 15.9358 24.221 15.7686 24.221 15.6348C24.221 15.2166 24.0537 14.8989 23.7192 14.6981C23.4683 14.5309 23.1004 14.4473 22.6153 14.4473C22.2808 14.4473 21.9463 14.4974 21.6118 14.5811C21.2773 14.6814 20.9762 14.8152 20.7253 14.9825C19.8891 15.5511 19.2201 16.2871 18.735 17.2237C18.3169 18.0265 18.0493 18.6788 17.8987 19.1973C17.8318 19.214 17.7649 19.214 17.698 19.2307C17.6813 19.3144 17.6646 19.4147 17.6479 19.4984L17.8486 19.4482C17.7482 19.7827 17.698 20.1005 17.698 20.435C17.698 21.3716 17.9489 22.0741 18.434 22.5591C18.9357 23.0441 19.5211 23.2783 20.2236 23.2783C20.926 23.2783 21.5616 23.0441 22.1303 22.5758C22.9164 21.9235 23.7861 21.0036 24.7562 19.7994C25.7263 18.6119 26.3953 17.6251 26.7465 16.839C26.897 16.7219 26.8636 16.6216 26.7298 16.6216ZM20.4076 18.7624C20.4577 18.6119 20.5246 18.4446 20.6083 18.2607C20.6919 18.0767 20.7588 17.9094 20.809 17.7924C21.0097 17.2404 21.3609 16.5212 21.8627 15.6348C22.0299 15.3337 22.2306 15.1163 22.4313 14.9992C22.632 14.8654 22.8829 14.7985 23.1673 14.7985C23.5018 14.7985 23.7192 14.9323 23.8195 15.1999C23.8864 15.4173 23.9199 15.6013 23.9199 15.7351C23.9199 15.8188 23.9032 15.9191 23.8697 16.0362C23.669 16.7721 23.2843 17.4244 22.7157 17.9931C22.1637 18.5617 21.4947 18.9631 20.7253 19.1806C20.6417 19.1973 20.5246 19.1973 20.3407 19.1973C20.3574 19.0635 20.3741 18.913 20.4076 18.7624Z" fill="#2D2C31"/>
<path d="M42.9869 16.2537C42.9702 16.1868 42.92 16.1366 42.8698 16.1032C40.8962 15.3003 39.0732 14.8989 37.4006 14.8989C36.4974 14.8989 35.6779 14.9826 34.9085 15.1665C34.1559 15.3505 33.2527 15.6014 32.2324 15.9192C31.6136 16.1199 30.978 16.2871 30.3425 16.4544C29.7069 16.6216 29.1215 16.6885 28.603 16.6885C27.9675 16.6885 27.3152 16.5547 26.6629 16.3206C26.6796 16.5213 26.6963 16.7053 26.713 16.906C27.3319 17.0231 27.8671 17.0732 28.302 17.0732C28.971 17.0732 29.6233 17.0063 30.2421 16.8558C30.861 16.7053 31.6136 16.4878 32.5168 16.2035C33.4701 15.8857 34.2897 15.6348 34.9754 15.4843C35.6612 15.3171 36.4138 15.2502 37.2166 15.2502C38.9226 15.2502 40.6955 15.7017 42.5855 16.6049C42.6524 16.6384 42.736 16.6384 42.8197 16.6216C42.9033 16.6049 42.9702 16.5547 42.9869 16.4544C43.0204 16.3708 43.0204 16.3039 42.9869 16.2537Z" fill="#2D2C31"/>
<path d="M18.434 19.047C17.6646 19.1808 16.9119 19.2477 16.1927 19.2477C15.6074 19.2477 15.0554 19.2142 14.5369 19.1473C14.0352 19.0804 13.2992 18.9633 12.3626 18.8128C11.3089 18.6288 10.3723 18.495 9.53602 18.3947C8.71647 18.2943 7.79657 18.2441 6.77632 18.2441C4.86962 18.2441 2.67858 18.4783 0.21994 18.9299C0.0694106 18.9633 0.00250882 19.0135 0.00250882 19.0971V19.1306C-0.0142166 19.1975 0.0526852 19.2477 0.203214 19.2477L0.40392 19.2142C2.79566 18.7125 4.93652 18.4448 6.84322 18.4448C7.72967 18.4448 8.53249 18.495 9.25168 18.5786C9.97088 18.6623 10.8072 18.8128 11.794 18.9801C12.6971 19.1473 13.4832 19.2644 14.1188 19.348C14.7711 19.4316 15.4736 19.4651 16.2262 19.4651C17.0123 19.4651 17.7649 19.4149 18.4507 19.348C18.434 19.2309 18.434 19.1473 18.434 19.047Z" fill="#2D2C31"/>
</svg>
