<svg width="42" height="40" viewBox="0 0 42 40" fill="none" xmlns="http://www.w3.org/2000/svg">
<g clip-path="url(#clip0)">
<path d="M42 25.8145C42.0161 23 40.1855 20.5 37.4919 19.6694C38.6532 17.4919 38.2097 14.7984 36.4032 13.1129C34.1613 11.1048 30.7339 11.2177 28.629 13.371C24.8548 17.2419 19.6694 19.4032 14.2661 19.3629C13.9113 19.3629 13.621 19.6532 13.621 20.0081V23.879H17.4919C20.8306 23.8871 24.0323 22.5645 26.3871 20.1935C26.6371 19.9435 27.0484 19.9435 27.2984 20.1935C27.5484 20.4435 27.5484 20.8548 27.2984 21.1048C24.7016 23.7177 21.1694 25.1774 17.4919 25.1613H13.621V27.1452H16.8468C22.5484 27.129 28.0242 29.3952 32.0484 33.4435C32.2984 33.7016 32.2903 34.1048 32.0323 34.3548C31.7823 34.5968 31.3871 34.5968 31.1371 34.3548C27.3548 30.5564 22.2097 28.4193 16.8468 28.4355H13.621V31.6613C13.621 32.0161 13.9113 32.3064 14.2661 32.3064C19.6532 32.3548 24.8065 34.5 28.629 38.2984C30.7339 40.4516 34.1613 40.5645 36.4032 38.5564C38.2016 36.8468 38.6371 34.1452 37.4677 31.9516C40.1532 31.1129 41.9839 28.629 42 25.8145Z" fill="#7C6B6A"/>
<path d="M30.6452 3.70161C7.87097 -0.0887113 8.49193 -1.91903e-06 8.3871 -1.91903e-06C3.75806 -1.91903e-06 0 3.75 0 8.37903C0 12.7661 3.37097 16.4113 7.74194 16.7419V21.371H6.53226C3.6371 21.371 1.29032 19.0242 1.29032 16.129C1.29032 15.7742 1 15.4839 0.645161 15.4839C0.290323 15.4839 0 15.7742 0 16.129C0.00806452 19.7339 2.92742 22.6613 6.53226 22.6613H7.74194V26.4516C7.74194 27.5242 8.60484 28.3871 9.67742 28.3871H11.6129C11.9274 30.6048 13.8226 32.25 16.0645 32.2581H22.9435C25.9516 32.2903 28.4113 29.879 28.4435 26.871C28.4758 23.8629 26.0726 21.4032 23.0645 21.371C23.0242 21.371 22.9839 21.371 22.9435 21.371H15.7984L16.6935 15.3952L30.6452 13.0726C31.5806 12.9194 32.2661 12.1129 32.2661 11.1613V5.6129C32.2661 4.66129 31.5806 3.85484 30.6452 3.70161ZM1.29032 8.38709C1.29839 4.49193 4.43548 1.32258 8.33871 1.29032L23.2258 3.77419V13L8.33871 15.4839C4.43548 15.4516 1.29839 12.2823 1.29032 8.38709ZM22.9435 22.6613C25.2339 22.629 27.121 24.4677 27.1452 26.7661C27.1774 29.0564 25.3387 30.9435 23.0403 30.9677C23.0081 30.9677 22.9677 30.9677 22.9355 30.9677H16.0565C14.5242 30.9677 13.2097 29.8871 12.9113 28.3871H13.0806C14.0403 28.3952 14.8548 27.6855 14.9919 26.7419L15.6048 22.6613H22.9435ZM13.7177 26.5484C13.6694 26.8629 13.3952 27.0968 13.0806 27.0968H9.67742C9.32258 27.0968 9.03226 26.8064 9.03226 26.4516V16.6774L15.3629 15.621L13.7177 26.5484ZM30.9677 11.1694C30.9677 11.4839 30.7419 11.75 30.4274 11.8064L24.5161 12.7903V3.99193L30.4274 4.9758C30.7419 5.02419 30.9677 5.29838 30.9677 5.6129V11.1694ZM12.2581 9.03226H6.45161C6.09677 9.03226 5.80645 8.74193 5.80645 8.38709C5.80645 8.03226 6.09677 7.74193 6.45161 7.74193H12.2581C12.6129 7.74193 12.9032 8.03226 12.9032 8.38709C12.9032 8.74193 12.6129 9.03226 12.2581 9.03226ZM6.57258 4.43548C6.6129 4.08064 6.93548 3.83064 7.29032 3.87903H7.29839L12.2984 4.52419C12.6532 4.56451 12.9113 4.87903 12.871 5.23387C12.8306 5.58871 12.5161 5.84677 12.1613 5.80645C12.1532 5.80645 12.1452 5.80645 12.129 5.80645L7.12903 5.16129C6.77419 5.1129 6.52419 4.79032 6.57258 4.43548ZM12.2903 12.25L7.29032 12.8952C6.93548 12.9516 6.6129 12.7097 6.55645 12.3548C6.5 12 6.74194 11.6774 7.09677 11.621C7.10484 11.621 7.1129 11.621 7.12903 11.621L12.129 10.9758C12.4839 10.9194 12.8065 11.1613 12.8629 11.5161C12.9194 11.871 12.6774 12.1935 12.3226 12.25C12.3065 12.25 12.2984 12.25 12.2903 12.25Z" fill="white"/>
</g>
<defs>
<clipPath id="clip0">
<rect width="42" height="40" fill="white"/>
</clipPath>
</defs>
</svg>
