<svg width="40" height="40" viewBox="0 0 40 40" fill="none" xmlns="http://www.w3.org/2000/svg">
<g clip-path="url(#clip0)">
<path d="M35.3064 27.5807C35.3306 25.621 33.7661 24.0161 31.8145 23.9919C29.8548 23.9677 28.25 25.5323 28.2258 27.4839C28.2258 27.5161 28.2258 27.5484 28.2258 27.5807C26.3629 26.9677 24.3548 27.9758 23.7419 29.8387C23.129 31.7016 24.1371 33.7097 26 34.3226C26.0081 34.3226 26.0161 34.3307 26.0242 34.3307C24.8548 35.9032 25.1774 38.121 26.75 39.2984C28.3226 40.4758 30.5403 40.1452 31.7177 38.5726C31.7339 38.5484 31.75 38.5242 31.7742 38.5C32.9032 40.0968 35.121 40.4839 36.7177 39.3468C38.3145 38.2178 38.7016 36 37.5645 34.4032C37.5484 34.3791 37.5323 34.3549 37.5081 34.3307C39.371 33.7258 40.3871 31.7178 39.7822 29.8549C39.1693 27.9919 37.1693 26.9758 35.3064 27.5807ZM31.7581 34.3952C30.6452 34.3952 29.7419 33.492 29.7419 32.379C29.7419 31.2661 30.6452 30.3629 31.7581 30.3629C32.871 30.3629 33.7742 31.2661 33.7742 32.379C33.7822 33.492 32.879 34.3952 31.7581 34.3952Z" fill="#7C6B6A"/>
<path d="M23.0968 18.7339C22.4677 18.4113 21.7419 18.3306 21.0645 18.5161C20.9758 16.9355 19.629 15.7258 18.0484 15.8065C16.5887 15.8871 15.4193 17.0484 15.3387 18.5161C13.8064 18.1129 12.2339 19.0242 11.8306 20.5565C11.4597 21.9677 12.2016 23.4355 13.5645 23.9677C12.7097 25.3065 13.1048 27.0806 14.4435 27.9355C15.6693 28.7177 17.2822 28.4597 18.2016 27.3387C19.2097 28.5645 21.0161 28.7419 22.2419 27.7339C23.3629 26.8145 23.621 25.1935 22.8387 23.9677C24.3145 23.3952 25.0403 21.7258 24.4677 20.25C24.2097 19.5887 23.7258 19.0565 23.0968 18.7339ZM18.2016 23.7903C17.4274 23.7903 16.8064 23.1694 16.8064 22.3952C16.8064 21.621 17.4274 21 18.2016 21C18.9758 21 19.5968 21.621 19.5968 22.3952C19.5968 23.1613 18.9758 23.7903 18.2016 23.7903Z" fill="#7C6B6A"/>
<path d="M36 14.129C35.4758 13.8629 34.8709 13.7823 34.2984 13.9113C34.2419 13.3226 33.9839 12.7823 33.5645 12.3629C32.5564 11.3952 30.9597 11.3952 29.9516 12.3629C29.5403 12.7823 29.2822 13.3226 29.2177 13.9113C28.6451 13.7823 28.0403 13.8629 27.5161 14.129C26.2581 14.7661 25.7581 16.3065 26.4032 17.5645C26.6693 18.0887 27.1129 18.5 27.6451 18.7419C26.9355 19.9597 27.3468 21.5242 28.5726 22.2339C29.621 22.8468 30.9516 22.629 31.758 21.7258C32.7016 22.7742 34.3145 22.871 35.3629 21.9274C36.2661 21.121 36.4758 19.7903 35.8709 18.7419C37.1613 18.1694 37.7419 16.6613 37.1774 15.371C36.9355 14.8387 36.5242 14.3952 36 14.129ZM31.758 18.4516C31.1451 18.4516 30.6532 17.9597 30.6532 17.3468C30.6532 16.7339 31.1451 16.2419 31.758 16.2419C32.371 16.2419 32.8629 16.7339 32.8629 17.3468C32.8629 17.9516 32.371 18.4516 31.758 18.4516Z" fill="#7C6B6A"/>
<path d="M5.80645 27.9919V31.6129C5.80645 31.9677 6.09677 32.2581 6.45161 32.2581C6.80645 32.2581 7.09677 31.9677 7.09677 31.6129V28.7097C11.3065 30.8468 15.9677 31.3145 19.2339 31.3145H19.3548V31.6048C19.3548 31.9597 19.6452 32.25 20 32.25C20.3548 32.25 20.6452 31.9597 20.6452 31.6048V31.1048C21.8065 30.5806 22.3226 29.2258 21.8064 28.0645C21.6129 27.6371 21.2984 27.2823 20.9032 27.0403C20.8387 27 20.7742 26.9516 20.7097 26.9113C20.8306 26.629 21.1129 26.4435 21.4274 26.4435H26.4516C27.5242 26.4435 28.3871 25.5806 28.3871 24.5081V20.4597L29.879 19.9597C30.2016 19.8548 30.3871 19.5081 30.2984 19.1774L28.3871 12.1613V10.9677H29.6774C30.0323 10.9677 30.3226 10.6774 30.3226 10.3226C30.3145 4.62097 25.7016 0.00806452 20 0H16.129C7.22581 0.00806452 0.00806452 7.22581 0 16.129V21.9355C0 22.0565 0.0322581 22.1694 0.0887097 22.2661C1.5 24.6129 3.45968 26.5806 5.80645 27.9919ZM27.121 12.4274L28.8952 18.9355L27.5403 19.3871C27.2742 19.4758 27.0968 19.7177 27.0968 20V24.5161C27.0968 24.871 26.8064 25.1613 26.4516 25.1613H21.4194C20.6935 25.1613 20.0323 25.5403 19.6613 26.1613C16.6048 23.7258 14.8306 20.0323 14.8387 16.129C14.8387 15.7742 14.5484 15.4839 14.1935 15.4839C13.4839 15.4839 12.9032 14.9032 12.9032 14.1935C12.9032 13.4839 13.4839 12.9032 14.1935 12.9032C14.9032 12.9032 15.4839 13.4839 15.4839 14.1935C15.4839 15.6129 16.1532 16.9516 17.2903 17.8065L18.3226 18.5806C18.6048 18.7984 19.0081 18.7339 19.2258 18.4516C19.3064 18.3387 19.3548 18.2016 19.3548 18.0645V8.65323L21.4758 10.7742C21.5968 10.8952 21.7581 10.9597 21.9355 10.9597H27.0968V12.25C27.0968 12.3145 27.1048 12.371 27.121 12.4274ZM1.29032 16.129C1.29839 7.93548 7.93548 1.29839 16.129 1.29032H20C24.7339 1.29839 28.6613 4.95161 29.0081 9.67742H22.2016L19.1694 6.64516L18.5242 6C18.2661 5.75 17.8629 5.75806 17.6129 6.01613C17.371 6.26613 17.371 6.66129 17.6129 6.91129L18.0726 7.37097V16.7742C17.2661 16.1613 16.7823 15.2097 16.7823 14.1935C16.7903 12.7661 15.6371 11.6048 14.2097 11.5968C12.7823 11.5887 11.621 12.7419 11.6129 14.1694C11.6048 15.3629 12.4194 16.4032 13.5726 16.6935C13.7419 21.379 16.2339 25.6774 20.2177 28.1452C20.7016 28.4274 20.8629 29.0484 20.5806 29.5323C20.4032 29.8387 20.0726 30.0323 19.7177 30.0323C14.7742 30.1048 5.82258 29.1129 1.29032 21.7581V16.129Z" fill="white"/>
</g>
<defs>
<clipPath id="clip0">
<rect width="39.9516" height="40" fill="white"/>
</clipPath>
</defs>
</svg>
