<svg width="43" height="40" viewBox="0 0 43 40" fill="none" xmlns="http://www.w3.org/2000/svg">
<g clip-path="url(#clip0)">
<path d="M38.3562 21.3175C37.0599 19.8263 35.933 18.53 35.933 16.954C35.933 13.4294 41.5166 11.5145 41.5674 11.4976C41.9233 11.3789 42.1097 10.9977 41.9911 10.6418C41.8979 10.3622 41.6437 10.1843 41.3471 10.1758C33.9334 10.1758 29.1124 11.4806 26.6214 14.158C24.4016 16.5389 24.4016 19.5637 24.4016 22.0038C24.4016 24.5287 24.3253 25.986 22.8341 26.4774C21.2921 27.0112 19.6145 26.9773 18.0978 26.4012C16.8184 25.9013 15.3611 26.2233 14.4037 27.2146C13.4717 28.1635 13.2006 29.5785 13.7259 30.807C15.1493 34.247 18.7757 40.0085 27.1213 40.0085C35.8991 40.0085 42.0334 35.5518 42.0334 29.1633C42.0334 25.5454 40.0762 23.3001 38.3562 21.3175ZM24.4609 30.0275C24.6558 29.7056 25.0709 29.6039 25.3929 29.7988C26.4774 30.4851 27.8415 30.5444 28.9769 29.9513C29.9767 29.3751 30.5698 28.2821 30.5104 27.1214C30.4427 25.9606 30.1207 24.8252 29.57 23.7916C28.7735 22.3004 28.3922 20.6143 28.477 18.9282C28.5109 18.5554 28.8413 18.2758 29.2141 18.3097C29.5869 18.3436 29.8665 18.674 29.8326 19.0468C29.7648 20.5126 30.1037 21.9614 30.8155 23.2408C31.4509 24.444 31.8068 25.7657 31.8661 27.1214C31.9254 28.7651 31.0696 30.3071 29.6462 31.129C28.0872 31.9678 26.1978 31.9 24.6981 30.9595C24.3677 30.7647 24.266 30.3495 24.4609 30.0275ZM34.8654 32.0271C33.2556 34.5012 30.4935 35.9839 27.5365 35.9585C24.2067 36.0347 21.0633 34.4334 19.1739 31.6967C18.9536 31.3916 19.0214 30.968 19.3264 30.7477C19.6314 30.5274 20.055 30.5952 20.2753 30.9002C20.2838 30.9172 20.3007 30.9341 20.3092 30.9511C21.936 33.315 24.6558 34.696 27.5196 34.6028C30.019 34.6537 32.3575 33.4082 33.7131 31.3154C35.9754 27.6552 34.4757 24.6388 33.0269 21.7242C31.7898 19.2332 30.5104 16.6575 32.7303 14.4376C33.0014 14.175 33.4251 14.1834 33.6877 14.4546C33.9419 14.7172 33.9419 15.1324 33.6877 15.395C32.2219 16.8608 32.9082 18.4452 34.2385 21.1226C35.7127 24.0627 37.5259 27.7229 34.8654 32.0271Z" fill="#7C6B6A"/>
<path d="M0.00848521 31.1883C0.00848521 31.5611 0.313505 31.8661 0.686308 31.8661C1.05911 31.8661 1.36413 31.5611 1.36413 31.1883C1.36413 30.1377 1.85555 29.1548 2.67741 28.5109C5.64289 30.7816 9.88775 30.2224 12.1669 27.2569C13.9801 24.893 14.0309 21.6141 12.294 19.1909L13.9462 18.2758L23.9441 24.6727C27.0451 26.6384 31.0951 26.1978 33.7047 23.6136C33.9674 23.351 33.9674 22.9189 33.7047 22.6562C33.6624 22.6139 33.6115 22.5715 33.5522 22.5461L19.911 14.9629L33.5522 7.38827C33.8827 7.21034 34.0013 6.79518 33.8149 6.46474C33.781 6.4139 33.7471 6.36306 33.7047 6.31223C31.0866 3.72803 27.0451 3.28744 23.9441 5.24466L13.9462 11.6416L12.2855 10.7265C14.4631 7.68482 13.7683 3.44843 10.7181 1.27092C7.66788 -0.906583 3.44843 -0.211815 1.27093 2.82991C-0.906575 5.87164 -0.211807 10.108 2.82992 12.2855C3.92291 13.065 5.21925 13.5056 6.56642 13.548L8.76087 14.9545L6.56642 16.3609C2.82992 16.4711 -0.101661 19.5891 0.00848521 23.3256C0.0593219 24.893 0.652417 26.4012 1.6861 27.5789C0.626998 28.477 0.00848521 29.7988 0.00848521 31.1883ZM32.0441 23.2493C29.875 24.8507 26.9519 24.9608 24.6728 23.5204L15.2934 17.5217L18.513 15.734L32.0441 23.2493ZM24.6728 6.38848C26.9519 4.94811 29.8835 5.05825 32.0441 6.65961L11.3705 18.1487C10.5995 17.437 9.67593 16.9117 8.67614 16.6236L24.6728 6.38848ZM1.36413 6.7867C1.36413 3.79581 3.79582 1.36412 6.78671 1.36412C9.7776 1.36412 12.2093 3.79581 12.2093 6.7867C12.2093 9.77759 9.7776 12.2093 6.78671 12.2093C3.78735 12.2093 1.36413 9.77759 1.36413 6.7867ZM8.67614 13.2938C9.6844 12.9973 10.5995 12.4804 11.3705 11.7687L12.6499 12.4804L10.0233 14.158L8.67614 13.2938ZM6.78671 17.7081C9.7776 17.7081 12.2093 20.1398 12.2093 23.1307C12.2093 26.1216 9.7776 28.5533 6.78671 28.5533C3.79582 28.5533 1.36413 26.1216 1.36413 23.1307C1.36413 20.1313 3.78735 17.7081 6.78671 17.7081ZM6.78671 26.5198C8.65919 26.5198 10.1758 25.0032 10.1758 23.1307C10.1758 21.2582 8.65919 19.7416 6.78671 19.7416C4.91423 19.7416 3.3976 21.2582 3.3976 23.1307C3.3976 24.9947 4.91423 26.5113 6.78671 26.5198ZM6.78671 21.0972C7.91359 21.0972 8.82018 22.0038 8.82018 23.1307C8.82018 24.2576 7.91359 25.1642 6.78671 25.1642C5.65983 25.1642 4.75324 24.2576 4.75324 23.1307C4.75324 22.0038 5.65983 21.0972 6.78671 21.0972ZM10.1758 6.7867C10.1758 4.91422 8.65919 3.39759 6.78671 3.39759C4.91423 3.39759 3.3976 4.91422 3.3976 6.7867C3.3976 8.65919 4.91423 10.1758 6.78671 10.1758C8.65072 10.1758 10.1673 8.65919 10.1758 6.7867ZM4.75324 6.7867C4.75324 5.65982 5.65983 4.75323 6.78671 4.75323C7.91359 4.75323 8.82018 5.65982 8.82018 6.7867C8.82018 7.91358 7.91359 8.82017 6.78671 8.82017C5.65983 8.82017 4.75324 7.91358 4.75324 6.7867Z" fill="white"/>
</g>
<defs>
<clipPath id="clip0">
<rect width="42.0335" height="40" fill="white"/>
</clipPath>
</defs>
</svg>
