<svg width="37" height="40" viewBox="0 0 37 40" fill="none" xmlns="http://www.w3.org/2000/svg">
<g clip-path="url(#clip0)">
<path d="M34.1935 22.5806C35.6188 22.5806 36.7741 21.4253 36.7741 20C36.7741 18.5747 35.6188 17.4194 34.1935 17.4194C32.7682 17.4194 31.6129 18.5747 31.6129 20C31.6129 21.4253 32.7682 22.5806 34.1935 22.5806Z" fill="#7C6B6A"/>
<path d="M10.3226 21.9355C11.3915 21.9355 12.2581 21.0689 12.2581 20C12.2581 18.9311 11.3915 18.0645 10.3226 18.0645C9.25363 18.0645 8.38708 18.9311 8.38708 20C8.38708 21.0689 9.25363 21.9355 10.3226 21.9355Z" fill="#7C6B6A"/>
<path d="M28.0645 17.7419C30.0242 17.7419 31.6129 16.1533 31.6129 14.1935C31.6129 12.2338 30.0242 10.6452 28.0645 10.6452C26.1048 10.6452 24.5161 12.2338 24.5161 14.1935C24.5161 16.1533 26.1048 17.7419 28.0645 17.7419Z" fill="#7C6B6A"/>
<path d="M28.621 23.2258C27.2016 18.8226 22.4839 16.3952 18.0807 17.8145C13.9758 19.1371 11.5484 23.3468 12.4516 27.5565C9.14518 28.879 7.54034 32.6371 8.86292 35.9436C9.83873 38.3952 12.2016 40 14.8387 40H28.3871C33.0161 40 36.7742 36.242 36.7742 31.6129C36.7742 27.0726 33.1613 23.3548 28.621 23.2258ZM25.7984 25.1452C25.4516 25.2339 25.1049 25.0242 25.0161 24.6774C24.5081 22.6774 22.7097 21.2823 20.6532 21.2823C20.2984 21.2823 20.0081 20.9919 20.0081 20.6371C20.0081 20.2823 20.2984 19.9919 20.6532 19.9919C23.3065 19.9919 25.6129 21.7903 26.2661 24.3548C26.3468 24.7097 26.1452 25.0565 25.7984 25.1452ZM33.5484 32.2581C33.1936 32.2581 32.9032 31.9678 32.9032 31.6129C32.9113 29.129 30.9032 27.1129 28.4194 27.0968C28.0645 27.0968 27.7742 26.8065 27.7742 26.4516C27.7742 26.0968 28.0645 25.8065 28.4194 25.8065C31.6129 25.8226 34.1936 28.4194 34.1936 31.6129C34.1936 31.9678 33.9032 32.2581 33.5484 32.2581Z" fill="#7C6B6A"/>
<path d="M1.93548 32.2581H22.5806C23.6532 32.2581 24.5161 31.3952 24.5161 30.3226V19.3548C24.5081 14.3306 21.4435 9.82258 16.7742 7.96774V6.45161C16.7742 5.37903 15.9113 4.51613 14.8387 4.51613V1.29032H15.4355C16.9435 1.28226 18.3952 1.8871 19.4597 2.95968C19.5887 3.12097 19.7823 3.21774 19.9919 3.22581C20.3468 3.22581 20.6371 2.93548 20.6371 2.58065C20.6371 2.41129 20.5726 2.24194 20.4516 2.12097C19.129 0.782258 17.3306 0.016129 15.4355 0H8.3871C8.03226 0 7.74194 0.290323 7.74194 0.645161C7.74194 1 8.03226 1.29032 8.3871 1.29032H9.67742V4.51613C8.60484 4.51613 7.74194 5.37903 7.74194 6.45161V7.96774C3.07258 9.82258 0.00806452 14.3306 0 19.3548V30.3226C0 31.3952 0.862903 32.2581 1.93548 32.2581ZM23.2258 25.1613H1.29032V20.6452H23.2258V25.1613ZM22.5806 30.9677H1.93548C1.58065 30.9677 1.29032 30.6774 1.29032 30.3226V26.4516H23.2258V30.3226C23.2258 30.6774 22.9355 30.9677 22.5806 30.9677ZM10.9677 1.29032H13.5484V4.51613H10.9677V1.29032ZM9.03226 6.45161C9.03226 6.09677 9.32258 5.80645 9.67742 5.80645H14.8387C15.1935 5.80645 15.4839 6.09677 15.4839 6.45161V7.54032C13.371 6.94355 11.1452 6.94355 9.03226 7.54032V6.45161ZM12.2581 8.3871C18.3145 8.39516 23.2177 13.2984 23.2258 19.3548H1.29032C1.29839 13.2984 6.20161 8.39516 12.2581 8.3871Z" fill="white"/>
</g>
<defs>
<clipPath id="clip0">
<rect width="36.7742" height="40" fill="white"/>
</clipPath>
</defs>
</svg>
