<svg width="125" height="141" viewBox="0 0 125 141" fill="none" xmlns="http://www.w3.org/2000/svg">
<path d="M110.526 94.0416H108.292V93.2969H113.724V94.0416H111.49V100.262H110.526V94.0416Z" fill="white"/>
<path d="M120.601 97.1514C120.557 96.1877 120.47 95.005 120.513 94.1289H120.47C120.207 94.9612 119.9 95.8373 119.55 96.801L118.236 100.174H117.535L116.352 96.8448C116.002 95.8811 115.695 94.9612 115.52 94.1289C115.52 95.005 115.432 96.1877 115.388 97.1952L115.213 100.174H114.293L114.819 93.209H116.045L117.316 96.5819C117.622 97.458 117.885 98.2027 118.06 98.9474H118.104C118.279 98.2465 118.542 97.458 118.893 96.5819L120.207 93.209H121.433L121.871 100.174H120.952L120.601 97.1514Z" fill="white"/>
<path d="M3.24817 104.992V104.773H16.6524V107.533H16.4334C16.1268 106.526 15.9077 105.912 15.6887 105.737C15.4697 105.562 14.9878 105.474 14.2432 105.474H7.1906V114.41H13.7175C14.3746 114.41 14.7688 114.367 14.944 114.235C15.1193 114.104 15.2069 113.972 15.2069 113.753H15.4259V115.637H15.2069C15.1631 115.374 15.0316 115.199 14.8564 115.111C14.6812 115.024 14.3308 114.98 13.8489 114.98H7.1906V121.113C7.1906 122.033 7.27821 122.69 7.45343 123.128C7.62864 123.566 7.93528 123.785 8.32952 123.916C8.72376 124.048 9.33703 124.091 10.1255 124.091H13.8927C15.0755 124.091 15.8639 124.048 16.1706 123.96C16.521 123.872 16.7838 123.741 17.0029 123.522C17.2219 123.303 17.3971 122.777 17.5285 122.033H17.7475V124.748H3.24817V124.529C3.73002 124.486 4.12426 124.398 4.38709 124.267C4.64992 124.135 4.78134 123.741 4.78134 123.128V107.051C4.78134 106.307 4.69373 105.825 4.56231 105.518C4.38709 105.124 3.99285 104.992 3.24817 104.992Z" fill="white"/>
<path d="M19.3683 104.949V104.729H25.4571C27.6036 104.729 29.1806 104.949 30.1881 105.387C31.1518 105.825 31.8964 106.394 32.3345 107.051C32.7725 107.708 32.9916 108.628 32.9916 109.723C32.9916 111.388 32.3783 112.658 31.108 113.534C29.8814 114.367 28.173 114.805 26.0266 114.761V114.542C27.3846 114.542 28.4797 114.148 29.312 113.359C30.1443 112.571 30.5823 111.563 30.5823 110.293C30.5823 109.329 30.3633 108.453 29.969 107.664C29.5748 106.92 28.9615 106.306 28.2168 105.912C27.4722 105.518 26.3332 105.299 24.8001 105.299H23.2669V122.295C23.2669 123.259 23.3983 123.828 23.6173 124.004C23.8364 124.179 24.2744 124.266 24.9315 124.266V124.485H19.3683V124.266C20.3758 124.266 20.8576 123.828 20.8576 122.996V106.525C20.8576 105.825 20.77 105.343 20.551 105.124C20.3758 105.08 19.9816 104.949 19.3683 104.949Z" fill="white"/>
<path d="M43.9427 115.506H37.6787L34.4371 122.996C34.2181 123.522 34.0867 123.872 34.0867 124.004C34.0867 124.31 34.3057 124.442 34.7876 124.442V124.661H31.6336V124.442C32.0717 124.442 32.4221 124.354 32.6849 124.135C32.9916 123.96 33.2982 123.434 33.6486 122.646L41.4021 104.467H41.7963L49.4183 122.032C49.4183 122.12 49.5936 122.558 49.9878 123.303C50.382 124.048 50.9953 124.442 51.7838 124.442V124.661H46.7901V124.442C47.2281 124.442 47.4909 124.267 47.4909 123.96C47.4909 123.741 47.3595 123.39 47.1405 122.865C47.0967 122.821 47.0529 122.777 47.0529 122.69C47.0529 122.602 47.0091 122.558 47.0091 122.558L43.9427 115.506ZM37.8977 114.936H43.6799L40.7888 108.146L37.8977 114.936Z" fill="white"/>
<path d="M67.2907 104.073L66.2832 106.482H66.0642C66.108 106.35 66.108 106.131 66.108 105.912C66.108 105.693 66.0204 105.562 65.8889 105.518C65.7575 105.474 65.4947 105.431 65.1443 105.431H59.5811V122.427C59.5811 123.128 59.6249 123.61 59.7563 123.872C59.8877 124.135 60.0629 124.31 60.2381 124.354C60.4572 124.442 60.7638 124.442 61.2456 124.442V124.661H55.4634V124.442C56.2081 124.398 56.6461 124.267 56.8214 124.048C56.9966 123.829 57.0842 123.391 57.0842 122.69V105.387H51.74C51.2144 105.387 50.8639 105.431 50.6887 105.474C50.5135 105.518 50.4259 105.693 50.4259 105.912C50.4259 106.044 50.4697 106.219 50.5573 106.438H50.3383L49.3307 104.029H49.5498C49.725 104.335 49.9002 104.554 50.0754 104.598C50.2507 104.686 50.6011 104.686 51.1706 104.686H65.3633C65.9328 104.686 66.327 104.642 66.5898 104.598C66.8527 104.511 67.0279 104.335 67.1155 104.029H67.2907V104.073Z" fill="white"/>
<path d="M77.2782 115.506H71.0141L67.7726 122.996C67.5535 123.522 67.4221 123.872 67.4221 124.004C67.4221 124.31 67.6411 124.442 68.123 124.442V124.661H64.9691V124.442C65.4071 124.442 65.7575 124.354 66.0204 124.135C66.2832 123.916 66.6336 123.434 66.9841 122.646L74.7375 104.467H75.1318L82.7538 122.032C82.7538 122.12 82.929 122.558 83.3232 123.303C83.7175 124.048 84.3308 124.442 85.1192 124.442V124.661H80.1255V124.442C80.5635 124.442 80.8264 124.267 80.8264 123.96C80.8264 123.741 80.695 123.39 80.4759 122.865C80.4321 122.821 80.3883 122.777 80.3883 122.69C80.3883 122.602 80.3445 122.558 80.3445 122.558L77.2782 115.506ZM71.1893 114.936H76.9716L74.0804 108.146L71.1893 114.936Z" fill="white"/>
<path d="M106.189 124.442V124.661H97.5598C95.8952 124.661 94.4497 124.486 93.2231 124.179C91.9966 123.829 90.7263 123.215 89.4121 122.295C88.1418 121.376 87.0905 120.193 86.302 118.835C85.5135 117.477 85.1193 116.031 85.1193 114.586C85.1193 113.009 85.6011 111.432 86.6086 109.855C87.6161 108.278 89.0179 107.008 90.8577 106C92.6975 105.036 94.8001 104.511 97.1218 104.511C99.2244 104.511 101.458 104.949 103.78 105.825L104.656 108.103H104.437C103.692 107.227 102.685 106.482 101.371 105.912C100.1 105.343 98.6549 105.036 97.078 105.036C94.3183 105.036 92.0842 106 90.332 107.928C88.5798 109.855 87.7037 112.264 87.7037 115.111C87.7037 116.294 87.8352 117.346 88.1418 118.309C88.4484 119.229 88.9741 120.149 89.7626 121.069C90.551 121.989 91.4271 122.646 92.347 123.084C93.2669 123.522 94.2745 123.829 95.4134 123.96C96.5523 124.135 97.4284 124.223 98.1293 124.179L99.2682 124.135C100.582 124.091 101.371 123.96 101.677 123.785C101.984 123.61 102.159 123.128 102.159 122.427V119.404C102.159 118.835 102.028 118.441 101.765 118.222C101.502 118.003 101.152 117.915 100.67 117.959V117.74H106.189V117.959C105.576 117.959 105.138 118.09 104.963 118.309C104.788 118.528 104.656 118.966 104.656 119.623V122.734C104.656 123.347 104.744 123.829 104.919 124.091C105.094 124.354 105.445 124.486 105.883 124.486H106.189V124.442Z" fill="white"/>
<path d="M107.854 104.992V104.773H121.302V107.533H121.083C120.776 106.526 120.557 105.912 120.338 105.737C120.119 105.562 119.637 105.474 118.893 105.474H111.84V114.41H118.367C119.024 114.41 119.418 114.367 119.594 114.235C119.769 114.104 119.856 113.972 119.856 113.753H120.075V115.637H119.856C119.813 115.374 119.681 115.199 119.506 115.111C119.331 115.024 118.98 114.98 118.498 114.98H111.796V121.113C111.796 122.033 111.884 122.69 112.059 123.128C112.234 123.522 112.541 123.785 112.935 123.916C113.329 124.004 113.943 124.091 114.731 124.091H118.498C119.681 124.091 120.47 124.048 120.776 123.96C121.127 123.872 121.39 123.741 121.609 123.522C121.828 123.303 122.003 122.777 122.134 122.033H122.353V124.748H107.766V124.529C108.248 124.486 108.642 124.398 108.905 124.267C109.168 124.135 109.299 123.741 109.299 123.128V107.051C109.299 106.307 109.212 105.825 109.08 105.518C108.993 105.124 108.555 104.992 107.854 104.992Z" fill="white"/>
<path d="M58.3107 91.5882C83.326 91.5882 103.605 71.3094 103.605 46.2941C103.605 21.2789 83.326 1 58.3107 1C33.2955 1 13.0166 21.2789 13.0166 46.2941C13.0166 71.3094 33.2955 91.5882 58.3107 91.5882Z" fill="#C4B0A9" stroke="white" stroke-width="2" stroke-miterlimit="10"/>
<path d="M70.0066 41.9139C69.8313 41.9139 69.6561 42.0453 69.4371 42.3519L68.2544 44.2355C66.9402 46.3381 65.6699 48.2217 64.3996 49.8863C63.1292 51.5947 61.5961 53.2593 59.8439 54.8801C59.143 55.4933 58.3107 56.1066 57.347 56.6761C56.3833 57.2893 55.5072 57.5522 54.6749 57.5522C53.974 57.5522 53.4046 57.3331 52.9665 56.8951C52.4847 55.4933 52.2218 54.223 52.2218 53.0403C52.2218 52.1204 52.3532 51.2005 52.6599 50.3244C52.9227 49.7111 53.0979 49.3607 53.2293 49.2292C53.3608 49.0978 53.7112 49.054 54.2807 49.054C55.332 49.0102 56.4709 48.616 57.785 47.8713C59.2306 47.039 60.4133 46.0315 61.2456 44.805C62.1217 43.5784 62.7788 42.1767 63.2606 40.5559C63.392 40.1179 63.4359 39.6798 63.4359 39.3294C63.4359 38.2343 62.9978 37.402 62.1217 36.8763C61.4646 36.4383 60.5009 36.2192 59.2306 36.2192C58.3545 36.2192 57.4784 36.3507 56.6023 36.5697C55.7262 36.8325 54.9377 37.1829 54.2807 37.621C52.0904 39.1104 50.3382 41.0378 49.0679 43.4908C47.9728 45.5935 47.2719 47.3018 46.8777 48.6598C46.7024 48.7036 46.5272 48.7036 46.352 48.7474C46.3082 48.9664 46.2644 49.2292 46.2206 49.4483L46.7462 49.3169C46.4834 50.193 46.352 51.0252 46.352 51.9013C46.352 54.3544 47.0091 56.1942 48.2794 57.4645C49.5935 58.7349 51.1267 59.3481 52.9665 59.3481C54.8063 59.3481 56.4709 58.7349 57.9603 57.5083C60.0191 55.8 62.2969 53.3907 64.8376 50.2368C67.3783 47.1266 69.1305 44.5421 70.0504 42.4833C70.4446 42.1767 70.357 41.9139 70.0066 41.9139ZM53.4484 47.5209C53.5798 47.1266 53.755 46.6886 53.974 46.2067C54.193 45.7249 54.3683 45.2868 54.4997 44.9802C55.0253 43.5346 55.9452 41.651 57.2594 39.3294C57.6974 38.5409 58.2231 37.9714 58.7487 37.6648C59.2744 37.3144 59.9315 37.1391 60.6761 37.1391C61.5522 37.1391 62.1217 37.4896 62.3845 38.1905C62.5598 38.7599 62.6474 39.2418 62.6474 39.5922C62.6474 39.8112 62.6036 40.0741 62.5159 40.3807C61.9903 42.3081 60.9828 44.0165 59.4934 45.5058C58.0479 46.9952 56.2957 48.0465 54.2807 48.616C54.0616 48.6598 53.755 48.6598 53.2731 48.6598C53.317 48.3094 53.3608 47.9151 53.4484 47.5209Z" fill="white"/>
<path d="M112.585 40.95C112.541 40.7748 112.41 40.6434 112.278 40.5558C107.109 38.4532 102.334 37.4019 97.954 37.4019C95.5886 37.4019 93.4421 37.6209 91.4271 38.1027C89.4559 38.5846 87.0904 39.2417 84.4183 40.0739C82.7976 40.5996 81.133 41.0377 79.4684 41.4757C77.8038 41.9137 76.2707 42.089 74.9127 42.089C73.2481 42.089 71.5397 41.7385 69.8314 41.1253C69.8752 41.6509 69.919 42.1328 69.9628 42.6584C71.5836 42.9651 72.9853 43.0965 74.1242 43.0965C75.8764 43.0965 77.5848 42.9213 79.2056 42.527C80.8264 42.1328 82.7976 41.5633 85.163 40.8186C87.6599 39.9863 89.8063 39.3293 91.6023 38.935C93.3983 38.497 95.3695 38.3218 97.4722 38.3218C101.94 38.3218 106.584 39.5045 111.533 41.8699C111.709 41.9576 111.928 41.9576 112.147 41.9137C112.366 41.8699 112.541 41.7385 112.585 41.4757C112.672 41.2567 112.672 41.0815 112.585 40.95Z" fill="white"/>
<path d="M48.2794 48.2652C46.2644 48.6157 44.2932 48.7909 42.4096 48.7909C40.8764 48.7909 39.4309 48.7033 38.0729 48.5281C36.7588 48.3528 34.8314 48.0462 32.3783 47.652C29.6186 47.1701 27.1655 46.8197 24.9753 46.5568C22.8288 46.294 20.4196 46.1626 17.7475 46.1626C12.7538 46.1626 7.01533 46.7759 0.576033 47.9586C0.18179 48.0462 0.00657071 48.1776 0.00657071 48.3966V48.4843C-0.037234 48.6595 0.137985 48.7909 0.532228 48.7909L1.05789 48.7033C7.32197 47.3891 12.929 46.6883 17.9227 46.6883C20.2444 46.6883 22.347 46.8197 24.2306 47.0387C26.1142 47.2577 28.3044 47.652 30.8889 48.09C33.2544 48.5281 35.3132 48.8347 36.9778 49.0537C38.6862 49.2727 40.526 49.3603 42.4972 49.3603C44.556 49.3603 46.5272 49.2289 48.3232 49.0537C48.2794 48.7471 48.2794 48.5281 48.2794 48.2652Z" fill="white"/>
<path d="M9.11799 132.677L8.46092 133.115C7.89146 132.283 7.14678 131.845 6.18307 131.845C5.39459 131.845 4.78132 132.108 4.25566 132.677C3.77381 133.291 3.51098 133.948 3.51098 134.78C3.51098 135.306 3.6424 135.787 3.86142 136.269C4.08044 136.751 4.43088 137.102 4.82513 137.321C5.21937 137.583 5.70122 137.715 6.18307 137.715C7.10297 137.715 7.89146 137.277 8.46092 136.444L9.11799 136.926C8.81136 137.452 8.41712 137.846 7.89146 138.109C7.3658 138.372 6.79634 138.547 6.13927 138.547C5.13176 138.547 4.29947 138.197 3.6424 137.452C2.98533 136.751 2.63489 135.875 2.63489 134.824C2.63489 134.123 2.81011 133.51 3.11674 132.896C3.42337 132.283 3.86142 131.845 4.38708 131.495C4.91274 131.144 5.526 131.013 6.18307 131.013C6.62112 131.013 7.01536 131.1 7.40961 131.232C7.80385 131.363 8.11048 131.582 8.41712 131.801C8.67994 132.02 8.94277 132.327 9.11799 132.677Z" fill="white"/>
<path d="M15.9953 135.963L16.6962 136.357C16.4771 136.839 16.2143 137.277 15.9077 137.583C15.6011 137.89 15.2944 138.109 14.9002 138.284C14.5497 138.46 14.1117 138.503 13.6298 138.503C12.5785 138.503 11.79 138.109 11.2206 137.364C10.6511 136.62 10.3445 135.744 10.3445 134.78C10.3445 133.86 10.6073 133.072 11.0892 132.371C11.7024 131.451 12.5347 131.013 13.586 131.013C14.6812 131.013 15.5134 131.495 16.1705 132.414C16.6086 133.072 16.8714 133.86 16.8714 134.868H11.1768C11.1768 135.7 11.4396 136.357 11.8776 136.926C12.3157 137.496 12.8852 137.715 13.5422 137.715C13.8489 137.715 14.1555 137.671 14.4621 137.54C14.7688 137.408 15.0316 137.233 15.2506 137.058C15.5134 136.795 15.7763 136.444 15.9953 135.963ZM15.9953 134.035C15.9077 133.553 15.7325 133.159 15.5134 132.853C15.2944 132.546 15.0316 132.327 14.6812 132.152C14.3307 131.976 13.9803 131.889 13.586 131.889C12.9728 131.889 12.4471 132.108 11.9653 132.546C11.6586 132.852 11.3958 133.378 11.2206 134.035H15.9953Z" fill="white"/>
<path d="M17.7037 131.188H21.8652V131.976H20.2006V138.328H19.3683V131.976H17.7037V131.188Z" fill="white"/>
<path d="M23.7926 134.035H24.5373C25.1505 134.035 25.6324 134.079 25.9828 134.21C26.3333 134.341 26.6399 134.56 26.9027 134.955C27.1655 135.349 27.297 135.743 27.297 136.225C27.297 136.795 27.1217 137.32 26.7713 137.714C26.4209 138.109 25.8514 138.328 25.1067 138.328H23.0041V131.188H23.7926V134.035ZM23.7926 134.867V137.583H24.7125C25.8076 137.583 26.3771 137.145 26.3771 136.269C26.3771 136.006 26.3333 135.787 26.2018 135.524C26.0704 135.305 25.8952 135.13 25.6762 134.999C25.4572 134.911 25.0629 134.867 24.4935 134.867H23.7926Z" fill="white"/>
<path d="M37.9853 132.677L37.3282 133.115C36.7588 132.283 36.0141 131.845 35.0504 131.845C34.2619 131.845 33.6486 132.108 33.123 132.677C32.5973 133.247 32.3783 133.904 32.3783 134.736C32.3783 135.262 32.5097 135.743 32.7287 136.225C32.9478 136.707 33.2982 137.058 33.6924 137.277C34.0867 137.539 34.5685 137.671 35.0504 137.671C35.9703 137.671 36.7588 137.233 37.3282 136.401L37.9853 136.882C37.6787 137.408 37.2844 137.802 36.7588 138.065C36.2331 138.328 35.6636 138.503 35.0066 138.503C33.9991 138.503 33.1668 138.153 32.5097 137.408C31.8526 136.707 31.5022 135.831 31.5022 134.78C31.5022 134.079 31.6774 133.466 31.984 132.852C32.2907 132.239 32.7287 131.801 33.2544 131.451C33.78 131.1 34.3933 130.969 35.0504 130.969C35.4884 130.969 35.8827 131.056 36.2769 131.188C36.6712 131.319 36.9778 131.538 37.2844 131.757C37.5911 132.02 37.8101 132.327 37.9853 132.677Z" fill="white"/>
<path d="M38.8614 131.188H43.0228V131.976H41.3583V138.328H40.526V131.976H38.8614V131.188Z" fill="white"/>
<path d="M43.4609 131.188H44.337L46.5272 136.707L48.6298 131.188H49.5059L45.7387 140.956H44.8626L46.0892 137.802L43.4609 131.188Z" fill="white"/>
<path d="M50.5572 137.583L53.0103 131.231H53.4484L55.8576 137.583H56.6023V139.292H55.8138V138.372H50.601V139.335H49.8126V137.583H50.5572ZM53.1855 132.633L51.3457 137.583H54.9815L53.1855 132.633Z" fill="white"/>
<path d="M58.5297 131.188V136.488L63.173 131.188H63.2169V138.328H62.3846V133.115L57.7851 138.328H57.6974V131.188H58.5297Z" fill="white"/>
<path d="M65.8451 131.188V136.488L70.4884 131.188H70.5322V138.328H69.6999V133.115L65.1004 138.328H65.0128V131.188H65.8451ZM65.7137 128.34H66.5022C66.6336 128.559 66.8088 128.735 67.0278 128.866C67.2469 128.997 67.5097 129.041 67.8163 129.041C68.123 129.041 68.3858 128.997 68.561 128.91C68.7362 128.822 68.9114 128.647 69.0867 128.384H69.8313C69.7437 128.778 69.5247 129.129 69.1743 129.392C68.8238 129.654 68.342 129.786 67.7725 129.786C67.2031 129.786 66.7212 129.654 66.3708 129.392C66.0641 129.085 65.8451 128.735 65.7137 128.34Z" fill="white"/>
<path d="M75.6574 131.188H76.4897V134.21L79.4246 131.188H80.5635L77.3658 134.473L80.8264 138.328H79.6874L76.7963 135.042L76.5335 135.305V138.371H75.7012V131.188H75.6574Z" fill="white"/>
<path d="M81.6586 131.188H82.4909V132.502C82.7975 132.02 83.1918 131.626 83.586 131.363C83.9803 131.1 84.4621 130.969 84.9878 130.969C85.8639 130.969 86.6524 131.319 87.3094 132.064C87.9665 132.809 88.2731 133.685 88.2731 134.692C88.2731 135.743 87.9665 136.62 87.3094 137.364C86.6524 138.109 85.8639 138.547 84.9878 138.547C84.5059 138.547 84.0241 138.416 83.586 138.197C83.148 137.978 82.7975 137.627 82.4471 137.145V141H81.6148V131.188H81.6586ZM84.9002 131.889C84.1993 131.889 83.586 132.151 83.1042 132.721C82.6223 133.29 82.4033 133.947 82.4033 134.78C82.4033 135.305 82.4909 135.787 82.7099 136.225C82.9289 136.663 83.2356 137.014 83.6298 137.233C84.0241 137.496 84.4621 137.627 84.9002 137.627C85.3382 137.627 85.7325 137.496 86.1267 137.233C86.5209 136.97 86.8276 136.62 87.0466 136.182C87.2656 135.743 87.397 135.262 87.397 134.736C87.397 134.21 87.2656 133.728 87.0466 133.29C86.8276 132.852 86.5209 132.502 86.1267 132.239C85.7763 132.02 85.3382 131.889 84.9002 131.889Z" fill="white"/>
<path d="M96.0266 131.188V138.328H95.2381V137.102C94.8877 137.583 94.4934 137.934 94.0992 138.153C93.6611 138.372 93.2231 138.503 92.6974 138.503C91.8213 138.503 91.0328 138.153 90.4196 137.408C89.8063 136.664 89.4559 135.787 89.4559 134.736C89.4559 133.729 89.7625 132.809 90.4196 132.108C91.0766 131.407 91.8213 131.013 92.7412 131.013C93.2669 131.013 93.7487 131.144 94.143 131.407C94.581 131.67 94.9315 132.02 95.2381 132.546V131.232H96.0266V131.188ZM92.785 131.889C92.347 131.889 91.9089 132.02 91.5147 132.283C91.1205 132.546 90.8138 132.896 90.5948 133.334C90.3758 133.772 90.2444 134.254 90.2444 134.78C90.2444 135.262 90.3758 135.744 90.5948 136.225C90.8138 136.664 91.1205 137.058 91.5147 137.277C91.9089 137.54 92.3032 137.671 92.7412 137.671C93.1793 137.671 93.6173 137.54 94.0116 137.277C94.4058 137.014 94.7124 136.664 94.9315 136.269C95.1505 135.831 95.2381 135.349 95.2381 134.824C95.2381 133.991 95.0191 133.291 94.5372 132.765C94.0992 132.195 93.4859 131.889 92.785 131.889Z" fill="white"/>
<path d="M103.999 132.677L103.342 133.115C102.772 132.283 102.028 131.845 101.064 131.845C100.276 131.845 99.6624 132.108 99.1367 132.677C98.611 133.247 98.392 133.904 98.392 134.736C98.392 135.262 98.5234 135.743 98.7425 136.225C98.9615 136.707 99.3119 137.058 99.7062 137.277C100.1 137.539 100.582 137.671 101.064 137.671C101.984 137.671 102.772 137.233 103.342 136.401L103.999 136.882C103.692 137.408 103.298 137.802 102.773 138.065C102.247 138.328 101.677 138.503 101.02 138.503C100.013 138.503 99.1805 138.153 98.5234 137.408C97.8664 136.707 97.5159 135.831 97.5159 134.78C97.5159 134.079 97.6911 133.466 97.9978 132.852C98.3044 132.239 98.7425 131.801 99.2681 131.451C99.7938 131.1 100.407 130.969 101.064 130.969C101.502 130.969 101.896 131.056 102.291 131.188C102.685 131.319 102.992 131.538 103.298 131.757C103.605 132.02 103.824 132.327 103.999 132.677Z" fill="white"/>
<path d="M108.555 131.013C109.518 131.013 110.351 131.407 110.964 132.195C111.533 132.94 111.84 133.772 111.84 134.78C111.84 135.787 111.533 136.664 110.92 137.408C110.307 138.153 109.518 138.547 108.555 138.547C107.591 138.547 106.803 138.153 106.189 137.408C105.576 136.664 105.269 135.787 105.269 134.78C105.269 133.772 105.576 132.94 106.146 132.195C106.759 131.407 107.591 131.013 108.555 131.013ZM108.555 131.933C107.898 131.933 107.284 132.195 106.803 132.765C106.321 133.334 106.058 133.991 106.058 134.824C106.058 135.349 106.189 135.831 106.408 136.269C106.627 136.707 106.934 137.058 107.284 137.321C107.679 137.583 108.073 137.671 108.511 137.671C108.949 137.671 109.387 137.54 109.737 137.321C110.132 137.058 110.395 136.751 110.614 136.269C110.833 135.831 110.964 135.349 110.964 134.824C110.964 134.035 110.701 133.334 110.219 132.765C109.825 132.195 109.212 131.933 108.555 131.933Z" fill="white"/>
<path d="M112.672 131.188H116.834V131.976H115.169V138.328H114.337V131.976H112.672V131.188Z" fill="white"/>
<path d="M118.717 134.035H119.506C120.119 134.035 120.601 134.079 120.952 134.21C121.302 134.298 121.609 134.56 121.871 134.955C122.134 135.349 122.266 135.743 122.266 136.225C122.266 136.795 122.09 137.32 121.74 137.714C121.39 138.109 120.82 138.328 120.075 138.328H117.973V131.188H118.761V134.035H118.717ZM118.761 134.867V137.583H119.681C120.776 137.583 121.346 137.145 121.346 136.269C121.346 136.006 121.302 135.787 121.171 135.524C121.039 135.305 120.864 135.13 120.645 134.999C120.426 134.867 120.032 134.867 119.462 134.867H118.761ZM123.361 131.188H124.193V138.328H123.361V131.188Z" fill="white"/>
</svg>
