<svg width="142" height="161" viewBox="0 0 142 161" fill="none" xmlns="http://www.w3.org/2000/svg">
<path d="M126.395 107.309H123.844V106.459H130.046V107.309H127.495V114.412H126.395V107.309Z" fill="#2D2C31"/>
<path d="M137.899 110.86C137.849 109.76 137.749 108.41 137.799 107.409H137.749C137.448 108.36 137.098 109.36 136.698 110.46L135.198 114.312H134.397L133.047 110.51C132.647 109.41 132.297 108.36 132.097 107.409C132.097 108.41 131.997 109.76 131.947 110.91L131.746 114.312H130.696L131.296 106.359H132.697L134.147 110.21C134.497 111.211 134.798 112.061 134.998 112.911H135.048C135.248 112.111 135.548 111.211 135.948 110.21L137.448 106.359H138.849L139.349 114.312H138.299L137.899 110.86Z" fill="#2D2C31"/>
<path d="M3.90187 119.814V119.564H19.2072V122.715H18.9571C18.607 121.564 18.3569 120.864 18.1068 120.664C17.8567 120.464 17.3065 120.364 16.4562 120.364H8.40344V130.567H15.856C16.6063 130.567 17.0565 130.517 17.2565 130.367C17.4566 130.217 17.5566 130.067 17.5566 129.817H17.8067V131.968H17.5566C17.5066 131.668 17.3566 131.468 17.1565 131.368C16.9564 131.268 16.5563 131.218 16.0061 131.218H8.40344V138.22C8.40344 139.27 8.50347 140.021 8.70354 140.521C8.90361 141.021 9.25374 141.271 9.70389 141.421C10.1541 141.571 10.8543 141.621 11.7546 141.621H16.0561C17.4066 141.621 18.3069 141.571 18.657 141.471C19.0572 141.371 19.3573 141.221 19.6073 140.971C19.8574 140.721 20.0575 140.121 20.2076 139.27H20.4576V142.371H3.90187V142.121C4.45206 142.071 4.90222 141.971 5.20232 141.821C5.50243 141.671 5.65248 141.221 5.65248 140.521V122.164C5.65248 121.314 5.55245 120.764 5.40239 120.414C5.20232 119.964 4.75217 119.814 3.90187 119.814Z" fill="#2D2C31"/>
<path d="M22.3083 119.764V119.513H29.2607C31.7116 119.513 33.5122 119.764 34.6626 120.264C35.763 120.764 36.6133 121.414 37.1134 122.164C37.6136 122.915 37.8637 123.965 37.8637 125.215C37.8637 127.116 37.1635 128.567 35.713 129.567C34.3125 130.517 32.3618 131.017 29.9109 130.967V130.717C31.4615 130.717 32.7119 130.267 33.6622 129.367C34.6126 128.467 35.1127 127.316 35.1127 125.866C35.1127 124.765 34.8627 123.765 34.4125 122.865C33.9623 122.014 33.2621 121.314 32.4118 120.864C31.5615 120.414 30.2611 120.164 28.5104 120.164H26.7598V139.57C26.7598 140.671 26.9099 141.321 27.16 141.521C27.4101 141.721 27.9102 141.821 28.6605 141.821V142.071H22.3083V141.821C23.4587 141.821 24.0089 141.321 24.0089 140.371V121.564C24.0089 120.764 23.9088 120.214 23.6588 119.964C23.4587 119.914 23.0085 119.764 22.3083 119.764Z" fill="#2D2C31"/>
<path d="M50.3681 131.818H43.2156L39.5143 140.371C39.2642 140.971 39.1141 141.371 39.1141 141.521C39.1141 141.871 39.3642 142.021 39.9144 142.021V142.271H36.3132V142.021C36.8133 142.021 37.2135 141.921 37.5136 141.671C37.8637 141.471 38.2138 140.871 38.614 139.971L47.467 119.213H47.9172L56.6202 139.27C56.6202 139.37 56.8203 139.871 57.2705 140.721C57.7206 141.571 58.4209 142.021 59.3212 142.021V142.271H53.6192V142.021C54.1194 142.021 54.4195 141.821 54.4195 141.471C54.4195 141.221 54.2694 140.821 54.0193 140.221C53.9693 140.171 53.9193 140.121 53.9193 140.021C53.9193 139.921 53.8693 139.871 53.8693 139.871L50.3681 131.818ZM43.4657 131.168H50.068L46.7668 123.415L43.4657 131.168Z" fill="#2D2C31"/>
<path d="M77.0274 118.763L75.877 121.514H75.6269C75.6769 121.364 75.6769 121.114 75.6769 120.864C75.6769 120.614 75.5769 120.464 75.4268 120.414C75.2768 120.364 74.9767 120.314 74.5765 120.314H68.2243V139.72C68.2243 140.521 68.2743 141.071 68.4244 141.371C68.5744 141.671 68.7745 141.871 68.9746 141.921C69.2246 142.021 69.5748 142.021 70.125 142.021V142.271H63.5227V142.021C64.373 141.971 64.8731 141.821 65.0732 141.571C65.2733 141.321 65.3733 140.821 65.3733 140.021V120.264H59.2712C58.671 120.264 58.2708 120.314 58.0708 120.364C57.8707 120.414 57.7707 120.614 57.7707 120.864C57.7707 121.014 57.8207 121.214 57.9207 121.464H57.6706L56.5202 118.713H56.7703C56.9704 119.063 57.1704 119.313 57.3705 119.363C57.5706 119.463 57.9707 119.463 58.621 119.463H74.8266C75.4768 119.463 75.927 119.413 76.2271 119.363C76.5272 119.263 76.7273 119.063 76.8273 118.713H77.0274V118.763Z" fill="#2D2C31"/>
<path d="M88.4314 131.818H81.2789L77.5776 140.371C77.3275 140.971 77.1774 141.371 77.1774 141.521C77.1774 141.871 77.4275 142.021 77.9777 142.021V142.271H74.3765V142.021C74.8766 142.021 75.2768 141.921 75.5769 141.671C75.877 141.421 76.2771 140.871 76.6773 139.971L85.5303 119.213H85.9805L94.6835 139.27C94.6835 139.37 94.8836 139.871 95.3338 140.721C95.7839 141.571 96.4842 142.021 97.3845 142.021V142.271H91.6825V142.021C92.1827 142.021 92.4828 141.821 92.4828 141.471C92.4828 141.221 92.3327 140.821 92.0826 140.221C92.0326 140.171 91.9826 140.121 91.9826 140.021C91.9826 139.921 91.9326 139.871 91.9326 139.871L88.4314 131.818ZM81.4789 131.168H88.0812L84.7801 123.415L81.4789 131.168Z" fill="#2D2C31"/>
<path d="M121.443 142.021V142.271H111.589C109.689 142.271 108.038 142.071 106.638 141.721C105.237 141.321 103.787 140.621 102.286 139.57C100.836 138.52 99.6353 137.17 98.7349 135.619C97.8346 134.069 97.3845 132.418 97.3845 130.767C97.3845 128.967 97.9347 127.166 99.0851 125.366C100.235 123.565 101.836 122.114 103.937 120.964C106.037 119.864 108.438 119.263 111.089 119.263C113.49 119.263 116.041 119.764 118.692 120.764L119.692 123.365H119.442C118.592 122.364 117.441 121.514 115.941 120.864C114.49 120.214 112.84 119.864 111.039 119.864C107.888 119.864 105.337 120.964 103.337 123.165C101.336 125.366 100.336 128.116 100.336 131.368C100.336 132.718 100.486 133.918 100.836 135.019C101.186 136.069 101.786 137.12 102.686 138.17C103.587 139.22 104.587 139.971 105.637 140.471C106.688 140.971 107.838 141.321 109.139 141.471C110.439 141.671 111.439 141.771 112.24 141.721L113.54 141.671C115.041 141.621 115.941 141.471 116.291 141.271C116.641 141.071 116.841 140.521 116.841 139.721V136.269C116.841 135.619 116.691 135.169 116.391 134.919C116.091 134.669 115.691 134.569 115.141 134.619V134.369H121.443V134.619C120.743 134.619 120.242 134.769 120.042 135.019C119.842 135.269 119.692 135.769 119.692 136.519V140.071C119.692 140.771 119.792 141.321 119.992 141.621C120.192 141.921 120.593 142.071 121.093 142.071H121.443V142.021Z" fill="#2D2C31"/>
<path d="M123.343 119.814V119.564H138.699V122.715H138.449C138.099 121.564 137.849 120.864 137.598 120.664C137.348 120.464 136.798 120.364 135.948 120.364H127.895V130.567H135.348C136.098 130.567 136.548 130.517 136.748 130.367C136.948 130.217 137.048 130.067 137.048 129.817H137.298V131.968H137.048C136.998 131.668 136.848 131.468 136.648 131.368C136.448 131.268 136.048 131.218 135.498 131.218H127.845V138.22C127.845 139.27 127.945 140.021 128.145 140.521C128.345 140.971 128.695 141.271 129.146 141.421C129.596 141.521 130.296 141.621 131.196 141.621H135.498C136.848 141.621 137.749 141.571 138.099 141.471C138.499 141.371 138.799 141.221 139.049 140.971C139.299 140.721 139.499 140.121 139.649 139.27H139.899V142.371H123.243V142.121C123.794 142.071 124.244 141.971 124.544 141.821C124.844 141.671 124.994 141.221 124.994 140.521V122.164C124.994 121.314 124.894 120.764 124.744 120.414C124.644 119.964 124.144 119.814 123.343 119.814Z" fill="#2D2C31"/>
<path d="M66.7738 104.508C95.3369 104.508 118.492 81.3533 118.492 52.7902C118.492 24.2271 95.3369 1.07214 66.7738 1.07214C38.2107 1.07214 15.0557 24.2271 15.0557 52.7902C15.0557 81.3533 38.2107 104.508 66.7738 104.508Z" fill="#C4B0A9" stroke="#2D2C31" stroke-width="2" stroke-miterlimit="10"/>
<path d="M80.1284 47.7884C79.9284 47.7884 79.7283 47.9385 79.4782 48.2886L78.1277 50.4393C76.6272 52.8402 75.1767 54.9909 73.7262 56.8916C72.2757 58.8423 70.5251 60.7429 68.5244 62.5936C67.7241 63.2938 66.7738 63.9941 65.6734 64.6443C64.573 65.3445 63.5727 65.6446 62.6223 65.6446C61.822 65.6446 61.1718 65.3945 60.6716 64.8944C60.1215 63.2938 59.8213 61.8433 59.8213 60.4928C59.8213 59.4425 59.9714 58.3921 60.3215 57.3917C60.6216 56.6915 60.8217 56.2914 60.9718 56.1413C61.1218 55.9913 61.5219 55.9412 62.1722 55.9412C63.3726 55.8912 64.673 55.4411 66.1736 54.5908C67.8241 53.6404 69.1746 52.49 70.1249 51.0895C71.1253 49.6891 71.8755 48.0885 72.4257 46.2379C72.5758 45.7377 72.6258 45.2375 72.6258 44.8374C72.6258 43.5869 72.1256 42.6366 71.1253 42.0364C70.375 41.5362 69.2746 41.2861 67.8241 41.2861C66.8238 41.2861 65.8234 41.4362 64.8231 41.6863C63.8227 41.9864 62.9224 42.3865 62.1722 42.8867C59.6713 44.5873 57.6706 46.788 56.2201 49.589C54.9697 51.9899 54.1694 53.9405 53.7192 55.4911C53.5192 55.5411 53.3191 55.5411 53.119 55.5911C53.069 55.8412 53.019 56.1413 52.969 56.3914L53.5692 56.2413C53.2691 57.2417 53.119 58.192 53.119 59.1924C53.119 61.9933 53.8693 64.0941 55.3198 65.5446C56.8203 66.9951 58.5709 67.6953 60.6716 67.6953C62.7724 67.6953 64.673 66.9951 66.3736 65.5946C68.7245 63.6439 71.3254 60.893 74.2264 57.2917C77.1274 53.7405 79.1281 50.7894 80.1784 48.4386C80.6286 48.0885 80.5286 47.7884 80.1284 47.7884ZM61.2218 54.1906C61.3719 53.7405 61.572 53.2403 61.822 52.6901C62.0721 52.1399 62.2722 51.6397 62.4223 51.2896C63.0225 49.639 64.0728 47.4883 65.5734 44.8374C66.0735 43.9371 66.6737 43.2868 67.274 42.9367C67.8742 42.5366 68.6244 42.3365 69.4747 42.3365C70.4751 42.3365 71.1253 42.7366 71.4254 43.5369C71.6255 44.1871 71.7255 44.7373 71.7255 45.1375C71.7255 45.3876 71.6755 45.6877 71.5754 46.0378C70.9752 48.2386 69.8248 50.1892 68.1242 51.8898C66.4737 53.5904 64.473 54.7908 62.1722 55.4411C61.9221 55.4911 61.572 55.4911 61.0218 55.4911C61.0718 55.0909 61.1218 54.6408 61.2218 54.1906Z" fill="#2D2C31"/>
<path d="M128.745 46.6881C128.695 46.488 128.545 46.338 128.395 46.2379C122.493 43.8371 117.041 42.6367 112.04 42.6367C109.339 42.6367 106.888 42.8867 104.587 43.4369C102.336 43.9871 99.6352 44.7374 96.5842 45.6877C94.7335 46.2879 92.8329 46.7881 90.9322 47.2883C89.0315 47.7885 87.2809 47.9885 85.7304 47.9885C83.8297 47.9885 81.8791 47.5884 79.9284 46.8881C79.9784 47.4883 80.0284 48.0385 80.0784 48.6388C81.9291 48.9889 83.5296 49.1389 84.8301 49.1389C86.8308 49.1389 88.7815 48.9389 90.6321 48.4887C92.4828 48.0385 94.7335 47.3883 97.4345 46.538C100.285 45.5877 102.736 44.8374 104.787 44.3873C106.838 43.8871 109.089 43.687 111.489 43.687C116.591 43.687 121.893 45.0375 127.545 47.7384C127.745 47.8385 127.995 47.8385 128.245 47.7885C128.495 47.7384 128.695 47.5884 128.745 47.2883C128.845 47.0382 128.845 46.8381 128.745 46.6881Z" fill="#2D2C31"/>
<path d="M55.3198 55.041C53.019 55.4411 50.7682 55.6412 48.6174 55.6412C46.8668 55.6412 45.2163 55.5411 43.6657 55.3411C42.1652 55.141 39.9644 54.7909 37.1634 54.3407C34.0123 53.7905 31.2114 53.3904 28.7105 53.0903C26.2596 52.7902 23.5087 52.6401 20.4576 52.6401C14.7556 52.6401 8.20335 53.3404 0.850784 54.6909C0.400627 54.7909 0.200557 54.9409 0.200557 55.191V55.2911C0.150539 55.4911 0.350609 55.6412 0.800766 55.6412L1.40098 55.5411C8.55347 54.0406 14.9557 53.2403 20.6577 53.2403C23.3086 53.2403 25.7094 53.3904 27.8602 53.6405C30.011 53.8906 32.5118 54.3407 35.4629 54.8409C38.1638 55.3411 40.5146 55.6912 42.4153 55.9413C44.366 56.1914 46.4667 56.2914 48.7175 56.2914C51.0683 56.2914 53.3191 56.1414 55.3698 55.9413C55.3198 55.5912 55.3198 55.3411 55.3198 55.041Z" fill="#2D2C31"/>
<path d="M10.6042 151.425L9.85393 151.925C9.2037 150.974 8.3534 150.474 7.25302 150.474C6.35271 150.474 5.65246 150.774 5.05225 151.425C4.50206 152.125 4.20196 152.875 4.20196 153.825C4.20196 154.426 4.35201 154.976 4.6021 155.526C4.85218 156.076 5.25232 156.476 5.70248 156.726C6.15264 157.027 6.70283 157.177 7.25302 157.177C8.30339 157.177 9.2037 156.676 9.85393 155.726L10.6042 156.276C10.2541 156.876 9.80391 157.327 9.2037 157.627C8.60349 157.927 7.95326 158.127 7.203 158.127C6.0526 158.127 5.10227 157.727 4.35201 156.876C3.60175 156.076 3.20161 155.076 3.20161 153.875C3.20161 153.075 3.40168 152.375 3.7518 151.675C4.10192 150.974 4.6021 150.474 5.2023 150.074C5.80251 149.674 6.50276 149.524 7.25302 149.524C7.75319 149.524 8.20335 149.624 8.65351 149.774C9.10366 149.924 9.45379 150.174 9.80391 150.424C10.104 150.674 10.4041 151.024 10.6042 151.425Z" fill="#2D2C31"/>
<path d="M18.4569 155.176L19.2572 155.626C19.0071 156.176 18.707 156.676 18.3569 157.027C18.0068 157.377 17.6566 157.627 17.2065 157.827C16.8063 158.027 16.3062 158.077 15.756 158.077C14.5556 158.077 13.6552 157.627 13.005 156.776C12.3548 155.926 12.0047 154.926 12.0047 153.825C12.0047 152.775 12.3048 151.875 12.855 151.074C13.5552 150.024 14.5055 149.524 15.706 149.524C16.9564 149.524 17.9067 150.074 18.657 151.124C19.1572 151.875 19.4573 152.775 19.4573 153.925H12.955C12.955 154.876 13.2551 155.626 13.7553 156.276C14.2555 156.927 14.9057 157.177 15.6559 157.177C16.0061 157.177 16.3562 157.127 16.7063 156.977C17.0564 156.826 17.3565 156.626 17.6066 156.426C17.9067 156.126 18.2068 155.726 18.4569 155.176ZM18.4569 152.975C18.3569 152.425 18.1568 151.975 17.9067 151.625C17.6566 151.275 17.3565 151.024 16.9564 150.824C16.5563 150.624 16.1561 150.524 15.706 150.524C15.0057 150.524 14.4055 150.774 13.8553 151.275C13.5052 151.625 13.2051 152.225 13.005 152.975H18.4569Z" fill="#2D2C31"/>
<path d="M20.4076 149.724H25.1593V150.624H23.2586V157.877H22.3083V150.624H20.4076V149.724Z" fill="#2D2C31"/>
<path d="M27.36 152.975H28.2103C28.9106 152.975 29.4608 153.025 29.8609 153.175C30.261 153.325 30.6112 153.575 30.9113 154.025C31.2114 154.476 31.3614 154.926 31.3614 155.476C31.3614 156.126 31.1614 156.726 30.7612 157.177C30.3611 157.627 29.7109 157.877 28.8606 157.877H26.4597V149.724H27.36V152.975ZM27.36 153.925V157.027H28.4104C29.6608 157.027 30.3111 156.526 30.3111 155.526C30.3111 155.226 30.261 154.976 30.111 154.676C29.9609 154.426 29.7609 154.226 29.5108 154.076C29.2607 153.975 28.8105 153.925 28.1603 153.925H27.36Z" fill="#2D2C31"/>
<path d="M43.5657 151.425L42.8154 151.925C42.1652 150.974 41.3149 150.474 40.2145 150.474C39.3142 150.474 38.614 150.774 38.0138 151.425C37.4136 152.075 37.1635 152.825 37.1635 153.775C37.1635 154.376 37.3135 154.926 37.5636 155.476C37.8137 156.026 38.2138 156.426 38.664 156.676C39.1141 156.977 39.6643 157.127 40.2145 157.127C41.2649 157.127 42.1652 156.626 42.8154 155.676L43.5657 156.226C43.2156 156.827 42.7654 157.277 42.1652 157.577C41.565 157.877 40.9148 158.077 40.1645 158.077C39.0141 158.077 38.0638 157.677 37.3135 156.826C36.5633 156.026 36.1631 155.026 36.1631 153.825C36.1631 153.025 36.3632 152.325 36.7133 151.625C37.0634 150.924 37.5636 150.424 38.1638 150.024C38.764 149.624 39.4643 149.474 40.2145 149.474C40.7147 149.474 41.1649 149.574 41.615 149.724C42.0652 149.874 42.4153 150.124 42.7654 150.374C43.1155 150.674 43.3656 151.024 43.5657 151.425Z" fill="#2D2C31"/>
<path d="M44.566 149.724H49.3177V150.624H47.417V157.877H46.4667V150.624H44.566V149.724Z" fill="#2D2C31"/>
<path d="M49.8179 149.724H50.8182L53.3191 156.026L55.7199 149.724H56.7203L52.4188 160.878H51.4184L52.8189 157.277L49.8179 149.724Z" fill="#2D2C31"/>
<path d="M57.9207 157.027L60.7217 149.774H61.2218L63.9728 157.027H64.8231V158.977H63.9228V157.927H57.9707V159.027H57.0704V157.027H57.9207ZM60.9217 151.375L58.821 157.027H62.9725L60.9217 151.375Z" fill="#2D2C31"/>
<path d="M67.0239 149.724V155.776L72.3257 149.724H72.3757V157.877H71.4254V151.925L66.1736 157.877H66.0735V149.724H67.0239Z" fill="#2D2C31"/>
<path d="M75.3768 149.724V155.776L80.6786 149.724H80.7287V157.877H79.7783V151.925L74.5265 157.877H74.4265V149.724H75.3768ZM75.2267 146.473H76.1271C76.2771 146.723 76.4772 146.923 76.7273 147.073C76.9774 147.223 77.2775 147.273 77.6276 147.273C77.9777 147.273 78.2778 147.223 78.4779 147.123C78.6779 147.023 78.878 146.823 79.0781 146.523H79.9284C79.8283 146.973 79.5783 147.373 79.1781 147.673C78.778 147.973 78.2278 148.123 77.5776 148.123C76.9273 148.123 76.3771 147.973 75.977 147.673C75.6269 147.323 75.3768 146.923 75.2267 146.473Z" fill="#2D2C31"/>
<path d="M86.5807 149.724H87.531V153.175L90.8822 149.724H92.1826L88.5314 153.475L92.4827 157.877H91.1823L87.8811 154.126L87.581 154.426V157.927H86.6307V149.724H86.5807Z" fill="#2D2C31"/>
<path d="M93.4331 149.724H94.3834V151.225C94.7335 150.674 95.1837 150.224 95.6338 149.924C96.084 149.624 96.6342 149.474 97.2344 149.474C98.2347 149.474 99.1351 149.874 99.8853 150.724C100.636 151.575 100.986 152.575 100.986 153.725C100.986 154.926 100.636 155.926 99.8853 156.776C99.1351 157.627 98.2347 158.127 97.2344 158.127C96.6842 158.127 96.134 157.977 95.6338 157.727C95.1337 157.477 94.7335 157.077 94.3334 156.526V160.928H93.383V149.724H93.4331ZM97.1344 150.524C96.3341 150.524 95.6338 150.824 95.0836 151.475C94.5334 152.125 94.2834 152.875 94.2834 153.825C94.2834 154.426 94.3834 154.976 94.6335 155.476C94.8836 155.976 95.2337 156.376 95.6838 156.626C96.134 156.927 96.6342 157.077 97.1344 157.077C97.6345 157.077 98.0847 156.927 98.5348 156.626C98.985 156.326 99.3351 155.926 99.5852 155.426C99.8353 154.926 99.9853 154.376 99.9853 153.775C99.9853 153.175 99.8353 152.625 99.5852 152.125C99.3351 151.625 98.985 151.225 98.5348 150.924C98.1347 150.674 97.6345 150.524 97.1344 150.524Z" fill="#2D2C31"/>
<path d="M109.839 149.724V157.877H108.938V156.476C108.538 157.027 108.088 157.427 107.638 157.677C107.138 157.927 106.638 158.077 106.037 158.077C105.037 158.077 104.137 157.677 103.437 156.826C102.736 155.976 102.336 154.976 102.336 153.775C102.336 152.625 102.686 151.575 103.437 150.774C104.187 149.974 105.037 149.524 106.087 149.524C106.688 149.524 107.238 149.674 107.688 149.974C108.188 150.274 108.588 150.674 108.938 151.275V149.774H109.839V149.724ZM106.138 150.524C105.637 150.524 105.137 150.674 104.687 150.974C104.237 151.275 103.887 151.675 103.637 152.175C103.387 152.675 103.236 153.225 103.236 153.825C103.236 154.376 103.387 154.926 103.637 155.476C103.887 155.976 104.237 156.426 104.687 156.676C105.137 156.977 105.587 157.127 106.087 157.127C106.588 157.127 107.088 156.977 107.538 156.676C107.988 156.376 108.338 155.976 108.588 155.526C108.838 155.026 108.938 154.476 108.938 153.875C108.938 152.925 108.688 152.125 108.138 151.525C107.638 150.874 106.938 150.524 106.138 150.524Z" fill="#2D2C31"/>
<path d="M118.942 151.425L118.192 151.925C117.541 150.974 116.691 150.474 115.591 150.474C114.69 150.474 113.99 150.774 113.39 151.425C112.79 152.075 112.54 152.825 112.54 153.775C112.54 154.376 112.69 154.926 112.94 155.476C113.19 156.026 113.59 156.426 114.04 156.676C114.49 156.977 115.041 157.127 115.591 157.127C116.641 157.127 117.541 156.626 118.192 155.676L118.942 156.226C118.592 156.827 118.142 157.277 117.541 157.577C116.941 157.877 116.291 158.077 115.541 158.077C114.39 158.077 113.44 157.677 112.69 156.826C111.94 156.026 111.539 155.026 111.539 153.825C111.539 153.025 111.739 152.325 112.09 151.625C112.44 150.924 112.94 150.424 113.54 150.024C114.14 149.624 114.841 149.474 115.591 149.474C116.091 149.474 116.541 149.574 116.991 149.724C117.441 149.874 117.792 150.124 118.142 150.374C118.492 150.674 118.742 151.024 118.942 151.425Z" fill="#2D2C31"/>
<path d="M124.144 149.524C125.244 149.524 126.194 149.974 126.895 150.874C127.545 151.725 127.895 152.675 127.895 153.825C127.895 154.976 127.545 155.976 126.845 156.826C126.144 157.677 125.244 158.127 124.144 158.127C123.043 158.127 122.143 157.677 121.443 156.826C120.743 155.976 120.392 154.976 120.392 153.825C120.392 152.675 120.743 151.725 121.393 150.874C122.093 149.974 123.043 149.524 124.144 149.524ZM124.144 150.574C123.394 150.574 122.693 150.874 122.143 151.525C121.593 152.175 121.293 152.925 121.293 153.875C121.293 154.476 121.443 155.026 121.693 155.526C121.943 156.026 122.293 156.426 122.693 156.726C123.143 157.027 123.594 157.127 124.094 157.127C124.594 157.127 125.094 156.977 125.494 156.726C125.944 156.426 126.244 156.076 126.495 155.526C126.745 155.026 126.895 154.476 126.895 153.875C126.895 152.975 126.595 152.175 126.044 151.525C125.594 150.874 124.894 150.574 124.144 150.574Z" fill="#2D2C31"/>
<path d="M128.845 149.724H133.597V150.624H131.696V157.877H130.746V150.624H128.845V149.724Z" fill="#2D2C31"/>
<path d="M135.748 152.975H136.648C137.348 152.975 137.899 153.025 138.299 153.175C138.699 153.275 139.049 153.575 139.349 154.025C139.649 154.476 139.799 154.926 139.799 155.476C139.799 156.126 139.599 156.726 139.199 157.177C138.799 157.627 138.149 157.877 137.298 157.877H134.898V149.724H135.798V152.975H135.748ZM135.798 153.925V157.027H136.848C138.099 157.027 138.749 156.526 138.749 155.526C138.749 155.226 138.699 154.976 138.549 154.676C138.399 154.426 138.199 154.226 137.949 154.076C137.699 153.925 137.248 153.925 136.598 153.925H135.798ZM141.05 149.724H142V157.877H141.05V149.724Z" fill="#2D2C31"/>
</svg>
