<svg width="114" height="38" viewBox="0 0 114 38" fill="none" xmlns="http://www.w3.org/2000/svg">
<path d="M106.624 6.4716H105.469V6.08655H108.278V6.4716H107.123V9.68794H106.624V6.4716Z" fill="#2D2C31"/>
<path d="M111.833 8.07978C111.811 7.58148 111.765 6.96992 111.788 6.51692H111.765C111.63 6.94727 111.471 7.40028 111.29 7.89858L110.61 9.64265H110.248L109.636 7.92123C109.455 7.42293 109.297 6.94727 109.206 6.51692C109.206 6.96992 109.161 7.58148 109.138 8.10244L109.047 9.64265H108.572L108.844 6.04126H109.478L110.135 7.78533C110.293 8.23833 110.429 8.62339 110.52 9.00845H110.542C110.633 8.64604 110.769 8.23833 110.95 7.78533L111.63 6.04126H112.264L112.49 9.64265H112.015L111.833 8.07978Z" fill="#2D2C31"/>
<path d="M51.1533 12.1342V12.0209H58.0843V13.4479H57.9711C57.8125 12.9269 57.6992 12.6098 57.586 12.5192C57.4727 12.4286 57.2236 12.3833 56.8385 12.3833H53.1918V17.004H56.5667C56.9065 17.004 57.1103 16.9813 57.2009 16.9134C57.2915 16.8454 57.3368 16.7775 57.3368 16.6642H57.4501V17.6382H57.3368C57.3142 17.5023 57.2462 17.4117 57.1556 17.3664C57.065 17.3211 56.8838 17.2985 56.6347 17.2985H53.1918V20.4695C53.1918 20.9451 53.2371 21.2849 53.3277 21.5114C53.4183 21.7379 53.5769 21.8512 53.7808 21.9191C53.9846 21.9871 54.3017 22.0097 54.7094 22.0097H56.6573C57.2689 22.0097 57.6766 21.9871 57.8351 21.9418C58.0164 21.8965 58.1523 21.8285 58.2655 21.7153C58.3788 21.602 58.4694 21.3302 58.5373 20.9451H58.6506V22.3495H51.1533V22.2362C51.4025 22.2136 51.6063 22.1683 51.7422 22.1003C51.8781 22.0324 51.9461 21.8285 51.9461 21.5114V13.1988C51.9461 12.8137 51.9008 12.5645 51.8328 12.406C51.7422 12.2021 51.5384 12.1342 51.1533 12.1342Z" fill="#2D2C31"/>
<path d="M59.4883 12.1115V11.9983H62.6367C63.7465 11.9983 64.5619 12.1115 65.0829 12.338C65.5812 12.5645 65.9663 12.859 66.1928 13.1987C66.4193 13.5385 66.5325 14.0141 66.5325 14.5804C66.5325 15.4411 66.2154 16.098 65.5586 16.551C64.9243 16.9813 64.041 17.2078 62.9311 17.1852V17.0719C63.6333 17.0719 64.1995 16.8681 64.6299 16.4604C65.0602 16.0527 65.2867 15.5317 65.2867 14.8748C65.2867 14.3765 65.1735 13.9235 64.9696 13.5158C64.7658 13.1308 64.4487 12.8137 64.0636 12.6098C63.6786 12.406 63.0897 12.2927 62.2969 12.2927H61.5042V21.081C61.5042 21.5793 61.5721 21.8738 61.6854 21.9644C61.7986 22.055 62.0251 22.1003 62.3649 22.1003V22.2135H59.4883V22.1003C60.0092 22.1003 60.2584 21.8738 60.2584 21.4434V12.9269C60.2584 12.5645 60.2131 12.3154 60.0998 12.2021C60.0092 12.1795 59.8054 12.1115 59.4883 12.1115Z" fill="#2D2C31"/>
<path d="M72.1958 17.5703H68.9568L67.2807 21.4435C67.1674 21.7153 67.0995 21.8965 67.0995 21.9644C67.0995 22.123 67.2127 22.1909 67.4619 22.1909V22.3042H65.8311V22.1909C66.0576 22.1909 66.2388 22.1456 66.3747 22.0324C66.5332 21.9418 66.6918 21.67 66.873 21.2623L70.8821 11.8624H71.0859L75.0271 20.9452C75.0271 20.9905 75.1177 21.217 75.3215 21.602C75.5254 21.9871 75.8425 22.1909 76.2502 22.1909V22.3042H73.668V22.1909C73.8945 22.1909 74.0305 22.1003 74.0305 21.9418C74.0305 21.8285 73.9625 21.6473 73.8492 21.3755C73.8266 21.3529 73.8039 21.3302 73.8039 21.2849C73.8039 21.2396 73.7813 21.217 73.7813 21.217L72.1958 17.5703ZM69.07 17.2758H72.0599L70.565 13.7651L69.07 17.2758Z" fill="#2D2C31"/>
<path d="M84.2681 11.6585L83.7471 12.9043H83.6338C83.6565 12.8363 83.6565 12.7231 83.6565 12.6098C83.6565 12.4966 83.6112 12.4286 83.5432 12.406C83.4753 12.3833 83.3394 12.3607 83.1582 12.3607H80.2816V21.149C80.2816 21.5114 80.3043 21.7605 80.3722 21.8964C80.4402 22.0323 80.5308 22.1229 80.6214 22.1456C80.7346 22.1909 80.8932 22.1909 81.1423 22.1909V22.3041H78.1525V22.1909C78.5375 22.1682 78.764 22.1003 78.8546 21.987C78.9452 21.8738 78.9905 21.6473 78.9905 21.2849V12.338H76.2272C75.9554 12.338 75.7742 12.3607 75.6836 12.3833C75.593 12.406 75.5477 12.4966 75.5477 12.6098C75.5477 12.6778 75.5704 12.7684 75.6157 12.8816H75.5024L74.9814 11.6359H75.0947C75.1853 11.7944 75.2759 11.9077 75.3665 11.9303C75.4571 11.9756 75.6383 11.9756 75.9328 11.9756H83.2714C83.5659 11.9756 83.7697 11.953 83.9057 11.9303C84.0416 11.885 84.1322 11.7944 84.1775 11.6359H84.2681V11.6585Z" fill="#2D2C31"/>
<path d="M89.4326 17.5703H86.1936L84.5175 21.4435C84.4042 21.7153 84.3363 21.8965 84.3363 21.9644C84.3363 22.123 84.4495 22.1909 84.6987 22.1909V22.3042H83.0679V22.1909C83.2944 22.1909 83.4756 22.1456 83.6115 22.0324C83.7474 21.9191 83.9286 21.67 84.1098 21.2623L88.1189 11.8624H88.3227L92.2639 20.9452C92.2639 20.9905 92.3545 21.217 92.5583 21.602C92.7622 21.9871 93.0793 22.1909 93.487 22.1909V22.3042H90.9049V22.1909C91.1314 22.1909 91.2673 22.1003 91.2673 21.9418C91.2673 21.8285 91.1993 21.6473 91.0861 21.3755C91.0634 21.3529 91.0408 21.3302 91.0408 21.2849C91.0408 21.2396 91.0181 21.217 91.0181 21.217L89.4326 17.5703ZM86.2842 17.2758H89.274L87.7791 13.7651L86.2842 17.2758Z" fill="#2D2C31"/>
<path d="M104.382 22.1909V22.3042H99.9195C99.0588 22.3042 98.3113 22.2136 97.6771 22.055C97.0429 21.8738 96.3861 21.5567 95.7065 21.081C95.0497 20.6054 94.5061 19.9938 94.0984 19.2917C93.6907 18.5895 93.4868 17.8421 93.4868 17.0946C93.4868 16.2792 93.736 15.4638 94.2569 14.6484C94.7779 13.833 95.5027 13.1761 96.454 12.6551C97.4053 12.1568 98.4925 11.885 99.693 11.885C100.78 11.885 101.935 12.1115 103.136 12.5645L103.589 13.7424H103.476C103.091 13.2894 102.57 12.9043 101.89 12.6098C101.233 12.3154 100.486 12.1568 99.6703 12.1568C98.2434 12.1568 97.0882 12.6551 96.1822 13.6518C95.2762 14.6484 94.8232 15.8941 94.8232 17.3664C94.8232 17.978 94.8911 18.5216 95.0497 19.0199C95.2082 19.4955 95.48 19.9712 95.8877 20.4468C96.2954 20.9225 96.7485 21.2623 97.2241 21.4888C97.6998 21.7153 98.2207 21.8738 98.8096 21.9418C99.3985 22.0324 99.8515 22.0777 100.214 22.055L100.803 22.0324C101.482 22.0097 101.89 21.9418 102.049 21.8512C102.207 21.7606 102.298 21.5114 102.298 21.149V19.5861C102.298 19.2917 102.23 19.0878 102.094 18.9746C101.958 18.8613 101.777 18.816 101.528 18.8387V18.7254H104.382V18.8387C104.064 18.8387 103.838 18.9066 103.747 19.0199C103.657 19.1331 103.589 19.3596 103.589 19.6994V21.3075C103.589 21.6247 103.634 21.8738 103.725 22.0097C103.815 22.1456 103.997 22.2136 104.223 22.2136H104.382V22.1909Z" fill="#2D2C31"/>
<path d="M105.242 12.1342V12.0209H112.196V13.4479H112.082C111.924 12.9269 111.811 12.6098 111.697 12.5192C111.584 12.4286 111.335 12.3833 110.95 12.3833H107.303V17.004H110.678C111.018 17.004 111.222 16.9813 111.312 16.9134C111.403 16.8454 111.448 16.7775 111.448 16.6642H111.562V17.6382H111.448C111.426 17.5023 111.358 17.4117 111.267 17.3664C111.176 17.3211 110.995 17.2985 110.746 17.2985H107.281V20.4695C107.281 20.9451 107.326 21.2849 107.417 21.5114C107.507 21.7152 107.666 21.8512 107.87 21.9191C108.073 21.9644 108.39 22.0097 108.798 22.0097H110.746C111.358 22.0097 111.765 21.9871 111.924 21.9418C112.105 21.8965 112.241 21.8285 112.354 21.7153C112.468 21.602 112.558 21.3302 112.626 20.9451H112.739V22.3495H105.197V22.2362C105.446 22.2136 105.65 22.1683 105.786 22.1003C105.922 22.0324 105.99 21.8285 105.99 21.5114V13.1988C105.99 12.8137 105.944 12.5645 105.876 12.406C105.831 12.2021 105.604 12.1342 105.242 12.1342Z" fill="#2D2C31"/>
<path d="M25.6367 37.0755C35.5778 37.0755 43.6367 29.0166 43.6367 19.0755C43.6367 9.13435 35.5778 1.07547 25.6367 1.07547C15.6956 1.07547 7.63672 9.13435 7.63672 19.0755C7.63672 29.0166 15.6956 37.0755 25.6367 37.0755Z" fill="#C4B0A9" stroke="#2D2C31" stroke-miterlimit="10"/>
<path d="M34.4588 15.2905C34.3458 15.2905 34.2328 15.3752 34.0916 15.5729L33.3289 16.7875C32.4815 18.1433 31.6624 19.3579 30.8433 20.4313C30.0241 21.5329 29.0355 22.6062 27.9057 23.6513C27.4537 24.0468 26.917 24.4422 26.2956 24.8094C25.6742 25.2049 25.1093 25.3744 24.5726 25.3744C24.1207 25.3744 23.7535 25.2331 23.471 24.9507C23.1603 24.0468 22.9908 23.2277 22.9908 22.465C22.9908 21.8718 23.0756 21.2787 23.2733 20.7137C23.4428 20.3183 23.5557 20.0923 23.6405 20.0076C23.7252 19.9228 23.9512 19.8946 24.3184 19.8946C24.9963 19.8664 25.7307 19.6121 26.5781 19.132C27.5102 18.5953 28.2729 17.9456 28.8095 17.1547C29.3745 16.3638 29.7982 15.46 30.1089 14.4148C30.1936 14.1324 30.2218 13.8499 30.2218 13.6239C30.2218 12.9178 29.9394 12.3811 29.3745 12.0422C28.9508 11.7597 28.3293 11.6185 27.5102 11.6185C26.9453 11.6185 26.3804 11.7032 25.8154 11.8444C25.2505 12.0139 24.7421 12.2399 24.3184 12.5223C22.9061 13.4827 21.7762 14.7255 20.9571 16.3073C20.2509 17.6632 19.799 18.7648 19.5448 19.6404C19.4318 19.6686 19.3188 19.6686 19.2058 19.6969C19.1776 19.8381 19.1493 20.0076 19.1211 20.1488L19.46 20.0641C19.2906 20.629 19.2058 21.1657 19.2058 21.7306C19.2058 23.3124 19.6295 24.4987 20.4487 25.3179C21.296 26.137 22.2847 26.5325 23.471 26.5325C24.6573 26.5325 25.7307 26.137 26.6911 25.3461C28.0186 24.2445 29.4874 22.691 31.1257 20.6572C32.764 18.6518 33.8938 16.9852 34.487 15.6577C34.7412 15.4599 34.6847 15.2905 34.4588 15.2905ZM23.7817 18.906C23.8665 18.6518 23.9794 18.3693 24.1207 18.0586C24.2619 17.7479 24.3749 17.4654 24.4596 17.2677C24.7986 16.3356 25.3917 15.121 26.2391 13.6239C26.5216 13.1155 26.8606 12.7483 27.1995 12.5506C27.5385 12.3246 27.9621 12.2116 28.4423 12.2116C29.0073 12.2116 29.3745 12.4376 29.5439 12.8895C29.6569 13.2567 29.7134 13.5675 29.7134 13.7934C29.7134 13.9347 29.6852 14.1041 29.6287 14.3019C29.2897 15.5447 28.6401 16.6463 27.6797 17.6067C26.7476 18.567 25.6177 19.2449 24.3184 19.6121C24.1772 19.6404 23.9794 19.6404 23.6687 19.6404C23.697 19.4144 23.7252 19.1602 23.7817 18.906Z" fill="#2D2C31"/>
<path d="M48.4463 14.4483C48.4318 14.3905 48.3885 14.3472 48.3452 14.3183C46.6404 13.6248 45.0656 13.2781 43.6209 13.2781C42.8407 13.2781 42.1328 13.3503 41.4682 13.5092C40.8181 13.6682 40.038 13.8849 39.1567 14.1594C38.6221 14.3327 38.0731 14.4772 37.5241 14.6217C36.9751 14.7662 36.4695 14.8239 36.0216 14.8239C35.4726 14.8239 34.9091 14.7084 34.3457 14.5061C34.3602 14.6795 34.3746 14.8384 34.389 15.0118C34.9236 15.1129 35.3859 15.1562 35.7615 15.1562C36.3394 15.1562 36.9029 15.0984 37.4374 14.9684C37.972 14.8384 38.6221 14.6506 39.4023 14.405C40.2258 14.1305 40.9337 13.9138 41.526 13.7837C42.1184 13.6393 42.7685 13.5815 43.462 13.5815C44.9356 13.5815 46.467 13.9715 48.0996 14.7517C48.1574 14.7806 48.2296 14.7806 48.3018 14.7662C48.3741 14.7517 48.4318 14.7084 48.4463 14.6217C48.4752 14.5494 48.4752 14.4917 48.4463 14.4483Z" fill="#2D2C31"/>
<path d="M20.4586 19.2707C19.6213 19.4164 18.8021 19.4892 18.0194 19.4892C17.3823 19.4892 16.7816 19.4528 16.2173 19.3799C15.6713 19.3071 14.8704 19.1797 13.851 19.0159C12.7042 18.8157 11.6849 18.67 10.7747 18.5608C9.88281 18.4516 8.88167 18.397 7.7713 18.397C5.6962 18.397 3.31164 18.6518 0.63585 19.1433C0.472026 19.1797 0.399215 19.2343 0.399215 19.3253V19.3617C0.381012 19.4346 0.453823 19.4892 0.617647 19.4892L0.836079 19.4528C3.43906 18.9067 5.76901 18.6154 7.84411 18.6154C8.80886 18.6154 9.68258 18.67 10.4653 18.7611C11.248 18.8521 12.1581 19.0159 13.2321 19.1979C14.2151 19.3799 15.0706 19.5074 15.7623 19.5984C16.4722 19.6894 17.2367 19.7258 18.0558 19.7258C18.9113 19.7258 19.7305 19.6712 20.4768 19.5984C20.4586 19.471 20.4586 19.3799 20.4586 19.2707Z" fill="#2D2C31"/>
<path d="M54.1892 26.4492L53.8494 26.6757C53.5549 26.2453 53.1699 26.0188 52.6716 26.0188C52.2639 26.0188 51.9468 26.1547 51.675 26.4492C51.4258 26.7663 51.2899 27.106 51.2899 27.5364C51.2899 27.8082 51.3579 28.0573 51.4711 28.3065C51.5844 28.5556 51.7656 28.7368 51.9694 28.8501C52.1733 28.986 52.4224 29.0539 52.6716 29.0539C53.1472 29.0539 53.5549 28.8274 53.8494 28.3971L54.1892 28.6462C54.0306 28.918 53.8267 29.1219 53.5549 29.2578C53.2831 29.3937 52.9887 29.4843 52.6489 29.4843C52.128 29.4843 51.6976 29.3031 51.3579 28.918C51.0181 28.5556 50.8369 28.1026 50.8369 27.559C50.8369 27.1966 50.9275 26.8795 51.0861 26.5624C51.2446 26.2453 51.4711 26.0188 51.7429 25.8376C52.0147 25.6564 52.3318 25.5884 52.6716 25.5884C52.8981 25.5884 53.1019 25.6337 53.3058 25.7017C53.5096 25.7696 53.6682 25.8829 53.8267 25.9961C53.9627 26.1094 54.0986 26.268 54.1892 26.4492Z" fill="#2D2C31"/>
<path d="M57.7451 28.1479L58.1075 28.3518C57.9943 28.6009 57.8584 28.8274 57.6998 28.986C57.5413 29.1445 57.3827 29.2578 57.1789 29.3484C56.9977 29.439 56.7712 29.4616 56.522 29.4616C55.9784 29.4616 55.5707 29.2578 55.2762 28.8727C54.9818 28.4877 54.8232 28.0347 54.8232 27.5364C54.8232 27.0607 54.9591 26.653 55.2083 26.2906C55.5254 25.8149 55.9558 25.5884 56.4994 25.5884C57.0656 25.5884 57.496 25.8376 57.8357 26.3133C58.0622 26.653 58.1981 27.0607 58.1981 27.5817H55.2536C55.2536 28.012 55.3895 28.3518 55.616 28.6462C55.8425 28.9407 56.137 29.0539 56.4767 29.0539C56.6353 29.0539 56.7938 29.0313 56.9524 28.9633C57.1109 28.8954 57.2468 28.8048 57.3601 28.7142C57.496 28.5783 57.6319 28.3971 57.7451 28.1479ZM57.7451 27.1513C57.6998 26.9022 57.6092 26.6983 57.496 26.5398C57.3827 26.3812 57.2468 26.2679 57.0656 26.1773C56.8844 26.0867 56.7032 26.0414 56.4994 26.0414C56.1823 26.0414 55.9105 26.1547 55.6613 26.3812C55.5027 26.5398 55.3668 26.8116 55.2762 27.1513H57.7451Z" fill="#2D2C31"/>
<path d="M58.6279 25.679H60.7797V26.0867H59.919V29.371H59.4886V26.0867H58.6279V25.679Z" fill="#2D2C31"/>
<path d="M61.7759 27.1513H62.1609C62.478 27.1513 62.7272 27.1739 62.9084 27.2419C63.0896 27.3098 63.2481 27.4231 63.384 27.6269C63.5199 27.8308 63.5879 28.0346 63.5879 28.2838C63.5879 28.5782 63.4973 28.85 63.3161 29.0539C63.1349 29.2577 62.8404 29.371 62.4554 29.371H61.3682V25.679H61.7759V27.1513ZM61.7759 27.5816V28.9859H62.2515C62.8178 28.9859 63.1122 28.7594 63.1122 28.3064C63.1122 28.1705 63.0896 28.0573 63.0216 27.9214C62.9537 27.8081 62.8631 27.7175 62.7498 27.6496C62.6366 27.6043 62.4327 27.5816 62.1383 27.5816H61.7759Z" fill="#2D2C31"/>
<path d="M69.1149 26.4492L68.7752 26.6757C68.4807 26.2453 68.0957 26.0188 67.5974 26.0188C67.1897 26.0188 66.8726 26.1547 66.6008 26.4492C66.329 26.7436 66.2157 27.0834 66.2157 27.5137C66.2157 27.7855 66.2837 28.0347 66.3969 28.2838C66.5102 28.533 66.6914 28.7142 66.8952 28.8274C67.0991 28.9633 67.3482 29.0313 67.5974 29.0313C68.073 29.0313 68.4807 28.8048 68.7752 28.3744L69.1149 28.6236C68.9564 28.8954 68.7525 29.0992 68.4807 29.2351C68.2089 29.371 67.9145 29.4616 67.5747 29.4616C67.0538 29.4616 66.6234 29.2804 66.2837 28.8954C65.9439 28.533 65.7627 28.08 65.7627 27.5364C65.7627 27.174 65.8533 26.8569 66.0118 26.5398C66.1704 26.2227 66.3969 25.9961 66.6687 25.8149C66.9405 25.6337 67.2576 25.5658 67.5974 25.5658C67.8239 25.5658 68.0277 25.6111 68.2316 25.679C68.4354 25.747 68.594 25.8602 68.7525 25.9735C68.9111 26.1094 69.0243 26.268 69.1149 26.4492Z" fill="#2D2C31"/>
<path d="M69.5679 25.679H71.7196V26.0867H70.8589V29.371H70.4286V26.0867H69.5679V25.679Z" fill="#2D2C31"/>
<path d="M71.9468 25.679H72.3998L73.5323 28.5329L74.6195 25.679H75.0725L73.1246 30.73H72.6716L73.3058 29.0992L71.9468 25.679Z" fill="#2D2C31"/>
<path d="M75.616 28.986L76.8844 25.7017H77.1109L78.3567 28.986H78.7417V29.8694H78.334V29.3937H75.6387V29.892H75.231V28.986H75.616ZM76.975 26.4265L76.0237 28.986H77.9037L76.975 26.4265Z" fill="#2D2C31"/>
<path d="M79.7385 25.679V28.4197L82.1394 25.679H82.162V29.371H81.7317V26.6756L79.3534 29.371H79.3081V25.679H79.7385Z" fill="#2D2C31"/>
<path d="M83.5212 25.679V28.4197L85.9221 25.679H85.9448V29.371H85.5144V26.6756L83.1361 29.371H83.0908V25.679H83.5212ZM83.4532 24.2067H83.8609C83.9289 24.32 84.0195 24.4106 84.1327 24.4785C84.246 24.5465 84.3819 24.5691 84.5404 24.5691C84.699 24.5691 84.8349 24.5465 84.9255 24.5012C85.0161 24.4559 85.1067 24.3653 85.1973 24.2294H85.5823C85.537 24.4332 85.4238 24.6144 85.2426 24.7503C85.0614 24.8862 84.8122 24.9542 84.5178 24.9542C84.2233 24.9542 83.9742 24.8862 83.793 24.7503C83.6344 24.5918 83.5212 24.4106 83.4532 24.2067Z" fill="#2D2C31"/>
<path d="M88.5947 25.679H89.0251V27.2419L90.5427 25.679H91.1316L89.4781 27.3778L91.2675 29.371H90.6786L89.1836 27.6722L89.0477 27.8081V29.3936H88.6174V25.679H88.5947Z" fill="#2D2C31"/>
<path d="M91.697 25.679H92.1273V26.3586C92.2859 26.1094 92.4897 25.9055 92.6936 25.7696C92.8974 25.6337 93.1466 25.5658 93.4184 25.5658C93.8714 25.5658 94.2791 25.747 94.6189 26.1321C94.9586 26.5171 95.1172 26.9701 95.1172 27.4911C95.1172 28.0347 94.9586 28.4877 94.6189 28.8727C94.2791 29.2578 93.8714 29.4843 93.4184 29.4843C93.1692 29.4843 92.9201 29.4163 92.6936 29.3031C92.4671 29.1898 92.2859 29.0086 92.1047 28.7595V30.7527H91.6743V25.679H91.697ZM93.3731 26.0414C93.0107 26.0414 92.6936 26.1774 92.4444 26.4718C92.1953 26.7663 92.082 27.106 92.082 27.5364C92.082 27.8082 92.1273 28.0573 92.2406 28.2838C92.3538 28.5103 92.5124 28.6915 92.7162 28.8048C92.9201 28.9407 93.1466 29.0086 93.3731 29.0086C93.5996 29.0086 93.8034 28.9407 94.0073 28.8048C94.2111 28.6689 94.3697 28.4877 94.4829 28.2612C94.5962 28.0347 94.6642 27.7855 94.6642 27.5137C94.6642 27.2419 94.5962 26.9928 94.4829 26.7663C94.3697 26.5398 94.2111 26.3586 94.0073 26.2227C93.8261 26.1094 93.5996 26.0414 93.3731 26.0414Z" fill="#2D2C31"/>
<path d="M99.1275 25.679V29.371H98.7198V28.7368C98.5386 28.986 98.3348 29.1672 98.1309 29.2804C97.9044 29.3937 97.6779 29.4616 97.4061 29.4616C96.9531 29.4616 96.5454 29.2804 96.2283 28.8954C95.9112 28.5103 95.73 28.0573 95.73 27.5137C95.73 26.9928 95.8885 26.5171 96.2283 26.1547C96.568 25.7923 96.9531 25.5884 97.4288 25.5884C97.7006 25.5884 97.9497 25.6564 98.1536 25.7923C98.3801 25.9282 98.5613 26.1094 98.7198 26.3812V25.7017H99.1275V25.679ZM97.4514 26.0414C97.2249 26.0414 96.9984 26.1094 96.7945 26.2453C96.5907 26.3812 96.4321 26.5624 96.3189 26.7889C96.2056 27.0154 96.1377 27.2646 96.1377 27.5364C96.1377 27.7855 96.2056 28.0347 96.3189 28.2838C96.4321 28.5103 96.5907 28.7142 96.7945 28.8274C96.9984 28.9633 97.2022 29.0313 97.4288 29.0313C97.6553 29.0313 97.8818 28.9633 98.0856 28.8274C98.2895 28.6915 98.448 28.5103 98.5613 28.3065C98.6745 28.08 98.7198 27.8308 98.7198 27.559C98.7198 27.1287 98.6066 26.7663 98.3574 26.4945C98.1309 26.2 97.8138 26.0414 97.4514 26.0414Z" fill="#2D2C31"/>
<path d="M103.249 26.4492L102.909 26.6757C102.615 26.2453 102.23 26.0188 101.732 26.0188C101.324 26.0188 101.007 26.1547 100.735 26.4492C100.463 26.7436 100.35 27.0834 100.35 27.5137C100.35 27.7855 100.418 28.0347 100.531 28.2838C100.644 28.533 100.826 28.7142 101.029 28.8274C101.233 28.9633 101.482 29.0313 101.732 29.0313C102.207 29.0313 102.615 28.8048 102.909 28.3744L103.249 28.6236C103.091 28.8954 102.887 29.0992 102.615 29.2351C102.343 29.371 102.049 29.4616 101.709 29.4616C101.188 29.4616 100.758 29.2804 100.418 28.8954C100.078 28.533 99.897 28.08 99.897 27.5364C99.897 27.174 99.9876 26.8569 100.146 26.5398C100.305 26.2227 100.531 25.9961 100.803 25.8149C101.075 25.6337 101.392 25.5658 101.732 25.5658C101.958 25.5658 102.162 25.6111 102.366 25.679C102.57 25.747 102.728 25.8602 102.887 25.9735C103.045 26.1094 103.159 26.268 103.249 26.4492Z" fill="#2D2C31"/>
<path d="M105.605 25.5884C106.103 25.5884 106.533 25.7923 106.85 26.2C107.145 26.5851 107.303 27.0154 107.303 27.5364C107.303 28.0573 107.145 28.5103 106.828 28.8954C106.511 29.2804 106.103 29.4843 105.605 29.4843C105.106 29.4843 104.699 29.2804 104.381 28.8954C104.064 28.5103 103.906 28.0573 103.906 27.5364C103.906 27.0154 104.064 26.5851 104.359 26.2C104.676 25.7923 105.106 25.5884 105.605 25.5884ZM105.605 26.0641C105.265 26.0641 104.948 26.2 104.699 26.4945C104.449 26.7889 104.313 27.1287 104.313 27.559C104.313 27.8308 104.381 28.08 104.495 28.3065C104.608 28.533 104.766 28.7142 104.948 28.8501C105.152 28.986 105.355 29.0313 105.582 29.0313C105.808 29.0313 106.035 28.9633 106.216 28.8501C106.42 28.7142 106.556 28.5556 106.669 28.3065C106.782 28.08 106.85 27.8308 106.85 27.559C106.85 27.1513 106.714 26.7889 106.465 26.4945C106.261 26.2 105.944 26.0641 105.605 26.0641Z" fill="#2D2C31"/>
<path d="M107.734 25.679H109.886V26.0867H109.025V29.371H108.595V26.0867H107.734V25.679Z" fill="#2D2C31"/>
<path d="M110.86 27.1513H111.268C111.585 27.1513 111.834 27.1739 112.015 27.2419C112.197 27.2872 112.355 27.4231 112.491 27.6269C112.627 27.8308 112.695 28.0346 112.695 28.2838C112.695 28.5782 112.604 28.85 112.423 29.0539C112.242 29.2577 111.947 29.371 111.562 29.371H110.475V25.679H110.883V27.1513H110.86ZM110.883 27.5816V28.9859H111.358C111.925 28.9859 112.219 28.7594 112.219 28.3064C112.219 28.1705 112.197 28.0573 112.129 27.9214C112.061 27.8081 111.97 27.7175 111.857 27.6496C111.744 27.5816 111.54 27.5816 111.245 27.5816H110.883ZM113.261 25.679H113.691V29.371H113.261V25.679Z" fill="#2D2C31"/>
</svg>
