<?xml version="1.0" encoding="utf-8"?><svg viewBox="0 0 21 20" xmlns="http://www.w3.org/2000/svg" xmlns:xlink="http://www.w3.org/1999/xlink"><style>:root>svg{display:none}:root>svg:target{display:block}</style><svg fill="none" viewBox="0 0 15 14" id="ic_dislike" xmlns="http://www.w3.org/2000/svg"><path d="M11.167 7.814V1.147A.834.834 0 0 1 12 .314h1.667a.833.833 0 0 1 .833.833v5.834a.833.833 0 0 1-.833.833h-2.5zm0 0a3.333 3.333 0 0 0-3.334 3.334v.833a1.667 1.667 0 0 1-3.333 0V7.814H2A1.667 1.667 0 0 1 .333 6.147l.834-4.166c.12-.511.347-.95.647-1.251.301-.3.659-.447 1.02-.416h5.833a2.5 2.5 0 0 1 2.5 2.5"/></svg><svg viewBox="0 0 6 12" id="ic_facebook" xmlns="http://www.w3.org/2000/svg"><path fill-rule="evenodd" clip-rule="evenodd" d="M5.672 2.122a3.884 3.884 0 0 0-1.049-.16c-.426 0-1.344.272-1.344.799v1.26h2.18v2.123h-2.18V12H1.082V6.144H0V4.02h1.082V2.952C1.082 1.34 1.836 0 3.656 0 4.279 0 5.393.032 6 .24l-.328 1.882z"/></svg><svg viewBox="0 0 12 13" id="ic_instargram" xmlns="http://www.w3.org/2000/svg"><path d="M11.969 3.628c-.028-.639-.132-1.076-.28-1.456a2.948 2.948 0 0 0-.693-1.064 2.933 2.933 0 0 0-1.061-.69C9.552.268 9.117.165 8.478.137 7.835.108 7.631.1 6 .1 4.37.1 4.166.107 3.527.135c-.639.029-1.076.132-1.456.28a2.95 2.95 0 0 0-1.064.693c-.305.3-.543.664-.69 1.061-.149.383-.252.818-.28 1.457-.03.643-.038.848-.038 2.475C0 7.73.006 7.936.034 8.575c.029.638.132 1.075.28 1.456.153.404.39.763.693 1.064.3.305.665.542 1.062.69.382.148.817.252 1.456.28.639.028.843.035 2.473.035s1.834-.007 2.473-.035c.64-.028 1.076-.132 1.457-.28a3.074 3.074 0 0 0 1.756-1.757c.149-.382.252-.817.28-1.456.028-.641.035-.843.035-2.473s-.002-1.83-.03-2.471zm-1.08 4.902c-.026.587-.125.902-.207 1.113a1.993 1.993 0 0 1-1.14 1.14c-.211.082-.53.18-1.113.206-.634.028-.822.035-2.424.035-1.602 0-1.794-.007-2.424-.035-.587-.026-.902-.124-1.113-.207a1.822 1.822 0 0 1-.688-.448c-.2-.195-.353-.43-.449-.688-.082-.212-.18-.531-.207-1.114-.028-.634-.035-.822-.035-2.424 0-1.602.007-1.794.035-2.424.026-.587.125-.902.207-1.113.094-.263.247-.498.449-.69.195-.2.43-.353.688-.45.211-.081.53-.18 1.113-.206.634-.028.822-.035 2.424-.035 1.604 0 1.795.007 2.424.035.587.026.902.125 1.113.207.261.096.498.249.689.448.2.195.352.43.448.691.082.211.181.53.207 1.113.028.635.035.822.035 2.424 0 1.602-.005 1.788-.033 2.422z"/><path d="M6 3.02a3.084 3.084 0 1 0 .001 6.168 3.084 3.084 0 0 0 0-6.168zm0 5.082A2.001 2.001 0 1 1 6 4.1a2.001 2.001 0 0 1 0 4.002zM9.928 2.897a.719.719 0 1 1-1.438 0 .719.719 0 0 1 1.438 0z"/></svg><svg fill="none" viewBox="0 0 15 14" id="ic_like" xmlns="http://www.w3.org/2000/svg"><path d="M3.833 6.148v6.667a.833.833 0 0 1-.833.833H1.333a.833.833 0 0 1-.833-.833V6.98a.833.833 0 0 1 .833-.833h2.5zm0 0a3.333 3.333 0 0 0 3.334-3.334v-.833a1.667 1.667 0 1 1 3.333 0v4.167H13a1.667 1.667 0 0 1 1.667 1.666l-.834 4.167c-.12.511-.347.95-.648 1.25-.3.302-.658.447-1.018.417H6.333a2.5 2.5 0 0 1-2.5-2.5"/></svg><svg fill="none" viewBox="0 0 21 20" id="ic_phone" xmlns="http://www.w3.org/2000/svg"><path d="M3.664.583h4.432l2.216 5.54-2.77 1.661a12.186 12.186 0 0 0 5.54 5.54l1.66-2.77 5.54 2.216V17.2a2.216 2.216 0 0 1-2.216 2.216A17.726 17.726 0 0 1 1.45 2.799 2.216 2.216 0 0 1 3.664.583"/></svg></svg>